<?xml version="1.0" encoding="UTF-8"?>
<svg id="Layer_1" data-name="Layer 1" xmlns="http://www.w3.org/2000/svg" viewBox="0 0 1500 544.85">
  <g>
    <path d="m1230.72,544.85c-2.49-1.28-5.11-.24-7.66-.43-1.23-.09-2.58.27-2.71-1.69-.11-1.71-.2-3.69,1.9-3.8,4.84-.25,4.85-3.2,4.74-6.87-.39-14.33-.63-28.66-.78-43-.03-2.51-.9-3.26-3.31-3.24-1.86.01-4.07.01-4.3-2.82-.18-2.17.1-3.53,2.89-3.34,3,.2,6.06.09,9.05-.25,3.31-.38,5.11.46,4.82,4.14-.05.64.54,1.33.98,2.35,5.8-8.97,14.39-8.83,22.84-6.42,7.64,2.18,10.01,9.26,11.66,16.29,1.49,6.34.41,12.44-1.49,18.57-2.27,7.3-8.19,12.37-15.76,13.13-5.71.58-10.91-.2-15.02-5.82,0,5.32,0,9.64,0,13.97,0,1.66.59,2.69,2.45,2.41,1.55-.23,2.95.66,4.4.63,2.94-.05,1.81,2.06,2.02,3.44.29,1.9-1.04,1.78-2.36,1.95-2.01.26-4.2-.8-6.03.79h-8.32Zm27.9-46.32c-.15-3.19-.66-6.34-2.02-9.34-1.54-3.41-4.42-4.55-7.8-4.81-3.5-.26-6.34.97-8.27,4.03-4.36,6.94-3.94,22.17.81,28.95,2.39,3.41,6.22,5.04,10.23,4.01,3.78-.97,5.7-3.77,6.45-7.48,1.03-5.08,2.37-10.14.6-15.37Z" style="fill: #77afe0;"/>
    <path d="m1289.14,269.62c7.91,3.41,14.48,8.32,20.59,13.81,12.61,11.31,22.62,24.56,28.86,40.43,3.43,8.73,5.69,17.79,7.09,27.06.37,2.46-.35,4.56-1.87,6.64-13.05,17.73-30.72,28.68-51.37,35.42-7.67,2.51-15.53,4.73-23.41,5.78-14.66,1.95-29.53,2.58-44.32,1.62-7.61-.49-15.25-1.51-22.84-2.75-9.93-1.61-19.19-5.06-28.5-8.59-12.48-4.74-23-12.43-32.56-21.45-3.7-3.49-6.65-7.81-9.7-11.93-2.47-3.34-.57-7.2.06-10.45,2.43-12.57,6.4-24.81,12.76-35.92,4.76-8.31,10.66-15.99,17.6-22.8,6.19-6.07,13.19-11.02,20.39-15.74.81-.53,1.82-1.51,3.35-.53-8.66,9.39-12.34,21.04-14.83,33.17-.57,2.77-.32,5.67-.93,8.49-.26,1.18-.34,2.14-1.71,2.51-5.96,1.6-9.73,5.83-12.92,10.78-4.7,7.28-6.64,15.39-7.35,23.88-.03.38-.17.9.02,1.11,2.88,3.3,3.92,7.43,5.38,11.4.57,1.55,2.27,1.47,3.88.68,1.94-.95,3-2.27,2.76-4.4-.21-1.78-1.27-2.98-3.04-3.44-7.34-1.89-7.6-2.1-6.71-9.16.88-6.97,3.51-13.38,7.09-19.37,7.57-12.65,24.68-12.84,33.42.27,4.54,6.8,6.34,14.47,7.12,22.42.39,3.97-1.59,5.86-5.74,5.73-2.01-.06-3.53.62-4.39,2.3-.67,1.31-.93,2.84.28,4.14,1.1,1.19,2.15,2.68,4.08,1.87,1.87-.78,3.64-1.76,3.55-4.27-.03-.96-.77-2.25.2-2.86,6.26-3.95,3.69-9.97,2.78-14.84-1.56-8.38-4.87-16.22-11.83-22.02-2.85-2.37-6.01-3.87-9.39-4.86-1.98-.57-2.42-1.53-2.23-3.18,1.52-13.32,4.53-26.18,13.06-36.95,3.68-4.65,7.47-9.52,13.99-10.66,1.69-.3,1.92-1.17.81-2.59-8.63-11.13-13.72-23.86-16.98-37.46-1.04-4.36-1.38-8.81-1.66-13.18-.47-7.43-.96-15.15.58-22.32.89-4.12,2.92-8.58,4.96-12.7,7.98-16.13,20.78-26.26,38.22-29.92,25.35-5.33,51.32,9.36,60.64,34.23,2.63,7.02,3.79,14.14,4.03,21.34.12,3.63,1.39,7.78.42,10.71-2.72,8.25-3.03,17-6.18,25.14-3.28,8.49-7.02,16.64-12.64,23.83-1.12,1.44-1.48,2.12.35,3.47,12.34,9.12,20.61,21.02,24.57,35.96.71,2.67.22,3.39-2.12,4.31-7.22,2.84-11.19,12.39-8.38,19.59,3.19,8.17,12.03,12.89,19.57,10.01,10.28-3.93,13.43-12.12,10.23-21.63-1.37-4.07-5.04-7.12-9.16-8.49-2.98-.99-4.53-2.02-5.34-5.28-2.44-9.77-7.12-18.49-13.81-26.08-.4-.46-1-.8-.8-2.28Zm-97.94-57.73c.76,10.34,3.24,19.87,7.57,28.91,5.27,11.03,11.88,20.93,23.25,26.67,4.64,2.34,9.38,4.47,14.69,4.59,10.35.23,18.97-4.05,26.36-10.83,10.07-9.23,15.95-20.86,19.3-34.06,1.94-7.65,2.54-15.38,3.62-23.49-3,1.94-4.05,5.31-7.33,6.61.46-2.11.3-3.84,0-5.7-1.41-8.59-5.59-15.97-9.59-23.47-1.17-2.19-2.09-1.98-3.99-.8-6.71,4.15-14.13,6.02-22,6.44-12.47.66-24.29-2.01-35.64-6.91-2.97-1.28-4.66-.43-6.37,1.86-2.75,3.67-3.33,7.95-3.52,12.27-.29,6.78-.3,13.58.91,20.61-2.64-.92-4.44-2.45-7.25-2.68Zm72.89,60.13c-.2-.42-.4-.83-.6-1.25-8.06,5.39-16.63,9.74-26.37,9.5-9.9-.25-18.4-4.98-26.8-10.1,8.89,12.34,17.78,24.68,26.89,37.32,9.14-12.06,18.01-23.76,26.87-35.47Zm17.87,80.29c1.5-4.47-1-5.12-4.61-4.69-.62.08-1.28-.1-1.89.03-3.53.72-4.09-.99-3.99-4.11.22-6.86.07-6.79-6.75-6.53-1.79.07-2.29.54-2.37,2.34-.34,8.03-.41,8.03-8.73,8.28-.13,0-.25.02-.38,0-1.63-.26-2.31.39-2.14,2.06.11,1.12.14,2.28,0,3.39-.35,2.81.77,3.7,3.61,3.67,7.57-.07,7.54.05,7.72,7.47.02,1.01-.63,2.31.79,2.99,4.1,1.94,8.31-.55,8.31-4.92q0-5.6,5.43-5.6c.25,0,.51-.03.76,0,3.44.54,5.47-.33,4.23-4.39Z" style="fill: #77afe0;"/>
    <path d="m98.36,185.38c-1.21,3.88-2.94,7.69-3.52,11.67-1.02,6.99-3.71,13.45-5.55,20.17-1.67,6.11-3.59,12.11-4.82,18.38-1.11,5.64-3.72,11.12-5.33,16.78-1.2,4.22-2.44,8.43-3.39,12.7-.59,2.67-3.77,4.77-1.76,8.13.25.42-.75,2.01-2.47,1.96-5.79-.17-11.59-.09-17.39-.05-1.64.01-2.25-.56-2.71-2.28-1.92-7.31-4.36-14.48-6.19-21.8-1.71-6.83-3.67-13.59-5.84-20.28-2.55-7.9-3.9-16.12-6.53-24.02-2.32-6.97-3.83-14.2-6.25-21.24-.04.8-.12,1.6-.12,2.4,0,24.17.04,48.35-.06,72.52-.01,3.01.67,4.29,3.95,4.24,4.67-.06,7.83,5.37,5.98,9.65-.51,1.19-1.45.77-2.23.77-10.59.03-21.18-.02-31.76.06-1.78.01-2.56-.43-2.33-2.29.12-.99.07-2.02.01-3.02-.14-2.21.03-3.66,3.03-3.94,3.19-.31,7.46-.78,9.06-2.87,1.6-2.09.55-6.26.56-9.53.02-22.66-.05-45.33.09-67.99.02-2.75-1.1-3.69-3.4-4.15-2.26-.45-4.5-1.02-6.76-1.45-1.86-.35-2.62-1.2-2.62-3.26,0-5.92-.12-5.92,5.89-5.92,10.08,0,20.17.11,30.25-.06,3.21-.05,4.28,1.51,4.77,4.24,1.36,7.68,3.47,15.12,6.26,22.44,1.26,3.31,1.35,7.18,2.54,10.65,2.2,6.43,4.05,13.03,5.9,19.51,2.06,7.21,3.88,14.6,5.77,21.91.87,3.37,1.47,6.89,3.49,10.7,1.58-8.26,4.12-15.58,6.2-22.97,1.87-6.66,4.3-13.37,6.42-20.08,2.41-7.64,4.92-15.24,7.25-22.9,2.15-7.09,4.07-14.24,6.22-21.33.38-1.27,1.29-2.17,3.07-2.16,11.34.1,22.69.08,34.03.02,1.64,0,2.2.45,2.13,2.12-.33,7.43,1.5,5.79-5.71,7.79-1.76.49-3.21,1.73-5.25,1.63-1.87-.09-1.08,1.65-1.08,2.56-.07,9.69-.04,19.39-.04,29.09,0,15.61.05,31.23-.05,46.84-.01,2.45.61,3.76,3.23,3.84,1.08.03,2.15.48,3.22.73,6.05,1.42,6.16,1.65,5.69,7.92-.11,1.46-.48,1.92-1.95,1.92-12.6-.05-25.21-.05-37.81,0-1.49,0-1.83-.5-1.93-1.93-.48-6.6.1-7.27,7.1-8.69,2.48-.5,3.56-2.67,3.57-4.96.07-24.67.04-49.35.04-74.02-.29-.05-.58-.1-.87-.15Z" style="fill: #77afe0;"/>
    <path d="m278.11,265.94c-4.35,5.85-10.44,8.45-16.72,10.49-10.41,3.38-25-2.33-30.99-11.7-11.59-18.15-10.34-36.93-1.64-55.39,4.16-8.84,12.62-13.16,22.6-13.54,5.44-.21,10.83-.23,16.05,2.14,2.91,1.32,4.77,3.58,7.01,5.55.51.45.81,1.51,1.68,1.06.63-.33.83-1.11.83-1.95-.03-9.19-.06-18.38.01-27.58.01-1.45-.48-1.83-1.83-2.08-2.24-.42-4.38-1.46-6.63-1.73-2.4-.29-2.9-1.34-2.86-3.57.11-5.68,0-5.69,5.88-5.69,6.43,0,12.87.21,19.28-.08,3.55-.17,4.63.67,4.61,4.44-.17,31.23-.05,62.46-.17,93.68-.01,3.5.8,5.46,4.58,5.38.44,0,.87.48,1.34.59,5.83,1.34,5.94,1.55,5.37,7.41-.12,1.24-.39,1.64-1.71,1.77-7.68.78-15.35,1.47-23.08,1.5-1.89,0-2.75-.45-2.58-2.52.22-2.7-1.46-5.21-1.02-8.19Zm-36-32.52c0,4.21-.2,7.12.06,9.99.26,2.93.88,5.83,1.49,8.71,1.61,7.64,6.99,14.06,12.6,14.62,7.87.79,15.14-2.58,17.75-11.24,2.94-9.77,3.57-19.68,2.06-29.68-.65-4.32-1.56-8.73-3.72-12.67-3.72-6.77-9.9-8.3-16.92-7.53-5.47.6-8.88,3.82-10.82,8.98-2.47,6.55-2.62,13.31-2.49,18.81Z" style="fill: #77afe0;"/>
    <path d="m537.43,207.38c3.64-4.9,7.59-8.82,13.73-10.41,6.85-1.78,13.41-1.45,20.18.01,12.77,2.76,17.3,12.52,20.2,23.51,2.93,11.08,2.38,22.24-1.56,32.94-3.48,9.47-9.29,17.48-19.57,20.38-8.79,2.48-17.64,2.42-25.58-3.3-1.98-1.43-3.29-3.4-4.85-5.28-1.19.66-.55,1.78-.56,2.62-.07,5.54-.04,11.08-.04,16.61,0,6.09-.02,6.18,5.75,7.17,1.22.21,2.38.58,3.58.81,4.57.87,6.08,3.27,4.85,7.54-.41,1.43-1.42,1.21-2.36,1.21-13.1.02-26.21-.01-39.31.04-1.73,0-2.02-.7-2.1-2.24-.31-5.99-.32-5.81,5.4-7.3,7.03-1.83,5.82-.17,5.83-7.33.05-24.29-.03-48.58.09-72.88.01-2.73-.67-4.15-3.43-4.44-.84-.09-1.64-.52-2.48-.71-5.49-1.26-6.25-2.47-5.41-8.06.21-1.38.8-1.6,1.96-1.6,7.06.02,14.11.03,21.17,0,1.36,0,1.64.43,2.06,1.83.85,2.84.5,6.04,2.45,8.86Zm1.92,26.41c.03,4.73.06,9.45.76,14.16.8,5.43,3.07,10.69,7.06,13.76,8.67,6.68,19.92,5.14,23.65-6.6,4.18-13.15,4.12-26.6-.24-39.8-2.74-8.31-6.71-10.32-17.74-9.73-4.75.25-9.15,5.11-11.23,11.06-1.97,5.64-2.38,11.32-2.26,17.15Z" style="fill: #77afe0;"/>
    <path d="m447.2,265.31c0,7.89.04,15.18-.03,22.47-.02,2.07.34,3.19,2.86,3.28,2.79.11,5.55.96,8.33,1.45,2.83.5,2.11,2.68,2.4,4.56.52,3.42-.68,4.3-4.11,4.23-11.97-.23-23.94-.07-35.91-.11-1.31,0-3.61.7-3.03-1.87.52-2.3-2.2-5.72,2.18-6.82q8.98-2.26,8.98-11.56c0-23.03-.04-46.07.05-69.1.01-2.88-.28-4.84-3.8-4.82-1.29,0-2.6-1.03-3.88-1-3.83.1-3.67-2.17-3.75-5-.09-3.27.56-4.63,4.24-4.41,5.9.36,11.84.19,17.76.05,2.55-.06,3.97.29,3.95,3.39-.02,2.34.92,4.68,1.5,7.38,2.24-2.4,4.11-4.52,6.1-6.53,3.09-3.12,7.24-4.28,11.3-4.79,9.83-1.22,19.45-.38,27.55,6.12,3.54,2.84,5.41,7.02,7.19,11.21,3.73,8.78,4.22,17.97,3.64,27.25-.19,3.07-1.78,6.24-2.22,9.06-.67,4.26-2.32,7.76-4.36,11.14-5.41,8.95-13.26,13.97-24.03,14.27-6.19.18-11.88-.51-17.13-4.21-2.11-1.48-3.24-3.75-5.77-5.65Zm-.13-33.48c.08,6.23-.05,10.59.83,14.91,1.07,5.3,2.51,10.89,6.4,14.38,7.63,6.84,19.3,6.2,24.24-5.13,2.52-5.76,2.83-11.84,3.26-17.88.54-7.42-.87-14.7-2.94-21.83-2.04-7.02-5.55-9.89-11.32-10.67-8.5-1.16-13.47,1.5-16.77,8.05-3.2,6.36-4.16,13.05-3.7,18.16Z" style="fill: #77afe0;"/>
    <path d="m394.14,275.1c-6.3,0-12.6-.1-18.89.05-2.33.05-3.26-.4-3.18-3.01.16-5.52,0-5.52,5.63-6.85,5.11-1.2,5.78-2.45,4.1-7.38-1.71-5.01-3.53-9.99-4.95-15.08-.42-1.51-.94-1.71-2.19-1.71-10.71.02-21.42.06-32.12-.04-1.67-.02-1.95.71-2.35,2.03-1.89,6.19-3.7,12.43-6.01,18.47-.81,2.13.19,2.44,1.43,2.82,2.22.67,4.49,1.19,6.77,1.62,2.31.43,3.53,1.28,3.4,4.04-.25,5.04-.05,5.05-5.27,5.05-10.08,0-20.16-.05-30.23.04-2.21.02-3.34-.19-3.26-2.93.17-5.67-.02-5.73,5.91-6.91,3.76-.75,6.44-2.12,7.81-6.32,4.04-12.35,8.33-24.64,13.05-36.74,3.26-8.38,5.96-16.93,9.08-25.35,3.2-8.65,6.55-17.26,9.57-25.97.51-1.49,1.04-1.63,2.23-1.63,4.79.02,9.57.03,14.36,0,1.37-.01,2.06.21,2.6,1.83,3.12,9.37,6.45,18.68,9.79,27.98,3.25,9.03,6.91,17.93,9.82,27.07,2.86,8.95,6.77,17.51,9.17,26.62.9,3.42,2.54,6.65,3.99,9.85,1.21,2.69,4.97,2.14,7.5,3.3,1.32.61,3.67.35,4.03,1.67.57,2.11.34,4.51.05,6.74-.17,1.35-1.67.72-2.55.73-6.42.05-12.85.03-19.27.03Zm-21.34-44.56c-4.27-13.52-8.49-26.86-12.68-40.22-.19-.61-.24-1.41-1.03-1.19-.67.19-1.11.79-1.23,1.68-.49,3.49-1.96,6.68-3.14,9.97-3.24,9.09-6.48,18.18-9.63,27.3-.51,1.48-.19,2.52,1.92,2.5,8.54-.11,17.08-.04,25.8-.04Z" style="fill: #77afe0;"/>
    <path d="m766.48,211.22c3.25-3.73,6.02-7.56,10.03-10.27,2.48-1.68,5.18-2.67,7.91-3.69,9.54-3.57,18.25-2.11,26.11,4.37,3.95,3.25,4.13,8.21,5.69,12.54,1.97,5.5.78,11.27,1.26,16.89.84,9.87.39,19.87.17,29.8-.07,3.03.99,4.15,3.79,4.44,1.56.17,3.06.94,4.62,1.13,1.87.23,2.31,1.07,2.32,2.89.02,5.76.11,5.76-5.64,5.76-10.2,0-20.41.03-30.61-.04-1.22,0-3.43,1-3.1-1.75.31-2.59-1.52-6.04,2.61-7.25.58-.17,1.26,0,1.88-.06,4.7-.51,5.89-1.76,5.83-6.37-.14-11.31.65-22.66-.61-33.93-.56-5-.24-10.44-4.41-14.49-1.52-1.48-3.31-2.42-5.23-2.53-13.65-.78-20.34,5.6-21.54,18.72-1.02,11.18.03,22.53-.04,33.81-.02,2.93,1.05,3.99,3.83,4.1,4.89.19,7.49,4.56,5.53,9.01-.52,1.18-1.45.76-2.23.76-11.59.03-23.18-.01-34.77.06-1.76.01-2.32-.41-2.37-2.27-.17-6.04.1-6.68,6.82-7.45,3.7-.42,4.86-1.78,4.81-5.59-.23-16.23-.15-32.47-.04-48.7.02-2.59-.71-3.93-3.38-4.08-.96-.06-1.89-.49-2.84-.7-5.28-1.18-6.26-2.72-5.34-8.12.18-1.09.53-1.53,1.62-1.53,7.43.02,14.87.04,22.3-.01,1.58-.01,1.59.84,1.9,2.07,1.02,4.08,1.16,8.39,3.14,12.47Z" style="fill: #77afe0;"/>
    <path d="m641.97,276.56c-8.5.61-16.46-1.1-23.36-6.35-8.21-6.25-11.82-15.1-13.33-24.92-1.27-8.28-1.23-16.59,1.15-24.7,5.22-17.75,16.76-25.65,36.62-25.23,5.37.11,10.68.83,15.76,2.54,10.64,3.58,16.19,11.93,18.84,22.09,2.94,11.27,2.92,22.78-.67,34.02-3.1,9.72-9.09,16.81-18.98,20.38-5.22,1.89-10.52,2.46-16.03,2.18Zm-17.63-41.02c.44,5.26.2,10.65,1.24,15.98,2.1,10.76,7.23,16.28,18.52,15.19,6.62-.64,11.45-3.4,13.41-10.63,3.33-12.29,3.24-24.51.97-36.86-.63-3.43-1.55-6.75-3.91-9.53-3.84-4.54-9-4.04-14.18-4.19-6.23-.18-10.05,2.72-12.7,8.04-3.48,6.98-2.67,14.53-3.35,21.99Z" style="fill: #77afe0;"/>
    <path d="m185.78,238.02c-7.56,0-15.13,0-22.69,0-1.31,0-2.92-.45-2.69,1.89.75,7.47,1.77,14.88,7.58,20.39,5.74,5.45,12.63,5.05,19.6,3.12,5.67-1.58,10.63-4.43,14.39-9.06.98-1.2,1.75-1.13,2.72-.17.09.09.19.17.29.24,6.77,5.46,7.41,4.07.78,10.43-7.89,7.57-17.33,11.5-28.42,11.83-8.53.25-16.65-1.17-23.23-6.5-6.68-5.42-10.88-12.81-11.76-21.62-.71-7.15-.76-14.33,0-21.48,1.41-13.12,10.19-27.69,25.88-30.68,6.44-1.23,12.91.33,19.25-1.09,7.59,4.3,16.21,7.3,20.21,16.09,3.51,7.73,4.54,15.85,4.01,24.27-.13,2.09-1.08,2.39-2.88,2.38-7.69-.08-15.38-.03-23.07-.03Zm-8.85-9.27c4.15,0,8.32-.24,12.45.08,3.21.24,3.97-1.09,3.53-3.83-.44-2.76-.85-5.54-1.42-8.27-1.32-6.32-5.33-10.1-11.69-11.14-6.18-1.02-11.56,1.42-14.72,6.7-2.45,4.1-3.55,8.55-3.95,13.3-.25,2.9.87,3.32,3.35,3.21,4.14-.18,8.3-.05,12.45-.05Z" style="fill: #77afe0;"/>
    <path d="m1044.95,334.58c-3.26,1.48-6.52,2.97-9.79,4.44-9.73,4.4-19.43,8.87-29.23,13.12-2.32,1.01-3.31,2.11-2.98,4.72.18,1.5,1,3.5-1.36,4.58-1.77.8-2.83,1.04-3.77-1.13-2.49-5.73-5.18-11.39-7.87-17.03-.38-.79-.78-1.49.19-1.78,1.55-.46,2.91-2.28,4.8-.88.3.22.49.57.74.85,3.95,4.43,3.9,4.34,9.37,1.75,6.47-3.07,13.03-5.98,19.56-8.93,6.13-2.77,12.24-5.58,18.42-8.23,3.28-1.41,1.59-3.68,1.14-5.65-.61-2.64-.15-4.29,2.93-4.51,1.35-.1,2.06.34,2.6,1.54,2.65,5.97,5.24,11.97,8.1,17.83,1.09,2.25-.42,2.93-1.61,3.93-13.58,11.43-27.17,22.85-40.77,34.27.57,1.3,1.59.64,2.28.55,10.52-1.32,21.02-2.71,31.53-4.09,6.66-.88,13.32-1.74,19.97-2.67,2.16-.3,3.35.41,4.24,2.52,2.33,5.55,4.93,10.99,7.44,16.46.61,1.32,1.35,2.61-.85,3.11-1.41.32-2.88,2.64-4.21-.26-.51-1.11-1.62-1.93-2.27-3-.86-1.42-1.79-1.29-3.12-.68-14.05,6.4-28.1,12.81-42.22,19.07-3.31,1.46-1.45,4.01-1.35,5.82.12,2.1.48,2.99-2.02,4.05-3.06,1.31-3.04-1.08-3.59-2.23-2.26-4.7-4.22-9.54-6.33-14.32-.51-1.14-1.1-2.26-1.76-3.32-.73-1.17-1.9-2.45-.14-3.43,1.48-.83,3.68-2.37,4.89-.19,2.71,4.88,5.82,2.93,9.34,1.3,12.18-5.64,24.43-11.12,36.51-17.44-4.29.55-8.59,1.04-12.86,1.67-7.96,1.18-15.9,2.44-23.85,3.67-5.72.88-11.49,1.55-17.13,2.77-1.87.4-2.18-.33-2.67-1.47-1.24-2.87-2.31-5.82-3.71-8.6-1.08-2.15.67-2.68,1.7-3.54,11.86-9.96,23.77-19.87,35.63-29.84,1.56-1.31,3.42-2.37,4.12-4.84Z" style="fill: #77afe0;"/>
    <path d="m1009.72,137.73c7.4,6.54,14.82,13.04,22.79,18.91,3.75,2.76,7.13,6.06,10.49,9.3,1.76,1.69,3.97,2.66,5.69,4.54,1.61,1.76,1.98,2.87.8,4.71-.2.31-.28.69-.43,1.04-3.65,8.36-3.96,8.79-12.76,6.55-6.38-1.62-12.91-1.65-19.31-2.86-7.1-1.34-14.23-2.51-21.36-3.72-1.18-.2-2.39-.35-4.08.37,5.95,1.96,11.28,4.4,16.47,6.83,6.75,3.16,13.76,5.88,20.29,9.49,3.23,1.79,5.62,1.53,7.63-1.31,1.3-1.85,3-1.37,4.34-.85,1.38.53,2.68,1.77,1.29,3.68-2.66,3.65-4.34,7.72-5.49,12.11-.48,1.82-1.91,3.47-3.15,5-1.78,2.21-2.59-.76-3.93-1.07-.94-.22-2-1.65-1.18-3.2,2.32-4.4,1.92-4.7-2.67-6.34-3.68-1.31-6.99-3.58-10.65-5.13-8.81-3.73-17.51-7.71-26.13-11.84-2.61-1.25-4-.76-5.54,1.46-.86,1.24-1.36,3.52-3.94,2.43-1.92-.81-3.2-1.34-1.93-3.94,2.63-5.39,4.85-10.98,7.27-16.48,1.03-2.34,1.96-3.95,5.11-1.89,1.49.97,4.22,1,6.12,1.2,10.99,1.14,21.76,3.74,32.81,4.53,3.7.27,7.53,1.42,12.46,1.94-6.66-5.75-12.53-10.82-18.41-15.88-4.46-3.85-8.94-7.67-13.39-11.53-3-2.6-5.86-5.38-8.98-7.83-1.59-1.26-3.39-1.05-1.03-4.12,3.05-3.97,4.46-9.26,6.34-14.07,1.42-3.63,2.8-4.54,5.16-2.7,1.78,1.39,1.32,3.55.65,5.02-1.07,2.33-.11,3.07,1.74,3.87,8.19,3.55,16.14,7.86,24.62,10.41,3.5,1.05,6.02,4.71,10.35,3.78.85-.18,2.31,2.05,3.82,2.93,3.05,1.77,5.1,1.34,6.65-1.74,1.29-2.56,3.08-2.51,5.16-1.01,1.13.82,1.68,1.97.86,3.12-3.93,5.5-5.2,12.25-8.6,17.99-.76,1.29-1.14,2.39-3.03,1.41-1.67-.87-3.52-1.66-2.52-3.77,1.65-3.49-.19-4.51-2.97-5.71-12.35-5.33-24.63-10.84-36.93-16.28-.57-.34-1.14-.47-1.7.04.4.2.8.4,1.2.6Z" style="fill: #77afe0;"/>
    <path d="m864.59,234.46c0,8.18-.03,16.35.01,24.53.03,5.1.98,6.01,6.17,6.14,2.39.06,4.79-.02,7.18.03,1.12.03,2.85-.54,2.52,1.61-.28,1.8,1.28,4.54-1.49,5.21-7.7,1.86-15.16,4.76-23.32,4.73-4.79-.02-10.07-3.4-9.87-10.16.34-11.37,0-22.74.15-34.11.1-7.55-.1-15.1.08-22.64.06-2.66-.38-3.9-3.41-3.58-2.99.31-6.04,0-9.06.09-1.5.04-2.75-.31-2.15-1.99.65-1.82-2.03-4.68,1.58-5.51,2.74-.63,5.6-1.67,8.29-1.39,4.8.5,5.19-2.86,5.1-5.67-.11-3.66,1.42-7.1.87-10.74-.18-1.22.15-2.39,1.55-2.58,4.4-.58,8.81-1.02,13.21-1.57,1.97-.24,2.61.47,2.55,2.49-.14,4.9.06,9.81-.09,14.71-.07,2.19.67,2.76,2.76,2.69,4.4-.15,8.81.03,13.22-.08,1.81-.05,2.3.53,2.38,2.34.31,7.28.38,7.28-6.8,7.28-3.02,0-6.05.13-9.06-.04-2.05-.12-2.51.62-2.49,2.55.1,8.55.04,17.11.04,25.66.03,0,.05,0,.08,0Z" style="fill: #77afe0;"/>
    <path d="m1500,266.02c.04,16.59-10.33,27.08-25.95,26.98-14.93-.09-25.22-11.41-25.44-27.16-.19-13.09,12.6-25.28,25.84-24.55,15.05.82,25.81,10.39,25.56,24.73Z" style="fill: #77afe0;"/>
    <path d="m976.62,266.61c.06-14.34,11.28-25.22,25.61-25.22,15.5,0,24.41,10.56,25.81,22.21.92,7.68-.72,14.62-5.93,20.51-5.22,5.91-11.98,9.26-19.7,9-13.1-.45-25.58-9.42-25.8-26.49Z" style="fill: #77afe0;"/>
    <path d="m719.44,230.91c0,10.07.12,20.14-.08,30.2-.05,2.76,1.1,3.72,3.45,4.17,1.67.32,3.29,1.03,4.97,1.18,2.02.18,2.23,1.22,2.24,2.92.03,5.72.1,5.72-5.67,5.72-10.46,0-20.91.03-31.37-.05-1.08,0-3.4,1-2.98-1.39.42-2.41-2.31-5.88,2.04-7.18.12-.03.21-.16.32-.19,2.81-.78,6.64-.7,8.18-2.54,1.82-2.17.53-6.03.55-9.16.06-14.47-.09-28.95.13-43.42.04-2.79-1.21-3.63-3.3-4.19-2-.54-4.01-1.07-6.05-1.37-1.42-.21-1.83-.88-1.99-2.19-.79-6.36-.5-6.73,5.87-6.73,6.8,0,13.61.12,20.41-.06,2.62-.07,3.41.62,3.36,3.31-.16,10.32-.07,20.64-.07,30.96Z" style="fill: #77afe0;"/>
    <path d="m1132.62,457.68c3.42-5.5,6.42-10.36,9.45-15.2,1.17-1.86,1.15-3.41-.82-4.76-2-1.37-2.96-3.19-1.03-5.26,1.98-2.13,3.17.22,4.58,1.08,3.42,2.07,6.72,4.37,10.27,6.18,1.84.94,1.19,2.02.6,2.86-7.65,10.88-14.33,22.37-21.43,33.59-3.4,5.38-6.66,10.85-10.15,16.16-1.75,2.66.49,3.69,1.84,4.81,2.02,1.67,1.96,3.06.45,4.99-.91,1.16-1.54,1.25-2.77.53-3.57-2.11-7.18-4.18-10.88-6.05-1.64-.83-1.98-2.12-1.37-3.37,1.98-4.06-1.35-2.76-2.85-2.78-9.53-.09-16.63-5.06-19.4-14.23-1.96-6.5.4-12.59,3.4-18.13,2.63-4.86,5.93-9.3,10.7-12.74,6.96-5.02,18.39-4.26,24.38,1.41,2.95,2.79,4.57,6.12,5.04,10.9Zm-4.73,3.41c.12-5.67-1.66-8.54-5.12-10.24-3.45-1.69-6.94-2.19-10.07.77-6.42,6.09-11.02,13.36-13.39,21.88-1.06,3.8.26,7.16,3.42,9.72,3.09,2.5,6.65,2.92,9.77.86,8.84-5.84,13.58-14.45,15.4-23Z" style="fill: #77afe0;"/>
    <path d="m1295.41,478.22c2.81-12.41,23.92-16.99,32.24-5.38,6.34,8.85,8.63,18.41,6.4,28.82-2.38,11.14-15.12,16.19-27.03,10.87,1.35,4.62,2.57,9,3.93,13.35.69,2.19,2.3,1.44,3.97,1.22,2.26-.29,5.11-1.97,6.28,2.03.5,1.7.09,2.27-1.35,2.71-7.43,2.29-14.84,4.62-22.28,6.87-1.48.45-2.39-.25-2.55-1.85-.12-1.23-1.74-2.3.73-3.49,4.87-2.34,4.68-2.59,3.07-7.91-4.14-13.62-8.32-27.22-12.23-40.9-.84-2.92-2.67-2.26-4.57-2.45-1.65-.16-3.65.91-4.48-2-.71-2.49.02-3.41,2.18-3.97,1.82-.47,3.63-.98,5.44-1.49q6.34-1.77,10.28,3.57Zm28.48,20.82c.57-2.1-.57-4.35-.92-6.64-.92-6.02-3.27-11.58-7.25-16.28-2.39-2.82-5.35-3.58-9.12-2.48-3.63,1.06-6.43,3.13-6.84,6.59-1.18,9.72,1.81,18.48,7.9,26.08,1.99,2.49,4.99,4.17,8.18,3.52,5.84-1.19,7.99-4.33,8.05-10.78Z" style="fill: #77afe0;"/>
    <path d="m1157.48,506.87c1.28.78,2.48,1.73,3.84,2.3,2.27.94,2.45,2.42,1.84,4.52-.73,2.52-2.26,1.35-3.79,1.15-6.05-.76-11.63-3.26-17.52-4.61-.97-.22-2.32-.32-1.76-1.74.5-1.27-.11-3.2,1.88-3.72.24-.06.52-.1.75-.04,5.49,1.47,7.74-2.28,10.15-6.08,6.93-10.96,14.83-21.27,21.78-32.23,2.45-3.87,5.34-7.57,8.02-11.35.94-1.33,1.77-1.81,3.42-1.21,2.2.8,4.52,1.29,6.81,1.81,1.02.23,1.45.71,1.53,1.76.46,5.57.97,11.13,1.51,16.69.68,7.04,1.57,14.06,2.08,21.11.45,6.21,1.15,12.41,1.49,18.61.19,3.41,1.22,5.25,4.23,6.28,2.9,1,2.93,2.71,1.62,5.19-.79,1.5-1.83,1.81-2.98,1.21-5.05-2.64-10.77-2.7-16.06-4.34-1.88-.58-3.77-1.13-5.6-1.85-.73-.29-2.41,0-1.74-1.69.49-1.24-.11-3.15,2.27-3.31,1.85-.12,4.38,1.18,5.42-.9.76-1.52-.04-3.73.24-5.58.41-2.69-.91-5.12-.8-7.73.05-1.17-.87-1.34-1.75-1.57-5.32-1.41-10.77-2.29-16.04-3.97-2.15-.68-4.12.56-5.36,2.52-1.82,2.85-3.58,5.74-5.46,8.77Zm26.58-40.61c-4.66,7.09-9.18,13.99-13.73,20.86-.9,1.36-.91,2.17.94,2.57,4.1.9,8.18,1.9,12.26,2.89,1.92.47,2.95-.06,2.54-2.2-1.49-7.84-.08-15.88-2-24.13Z" style="fill: #77afe0;"/>
    <path d="m1111.04,45.91c-2.87-4.54-5.58-8.86-8.33-13.15-1.36-2.13-3.15-3.07-5.54-1.6-2.18,1.34-3.33.37-4.47-1.55-1.52-2.55.93-2.72,2.01-3.47,2.93-2.05,6.14-3.72,9-5.86,2.25-1.68,3.29-1.5,4.85.98,9.72,15.49,19.88,30.69,29.17,46.45,1.23,2.09,2.69,3.08,4.84,1.75,1.1-.68,2.13-.57,3.23-.64,1.31-.08,1.44,1.01,1.99,1.84.81,1.24-.18,1.6-.75,2.02-3.52,2.6-7.04,5.2-10.67,7.64-1.77,1.18-1.95-1.12-2.88-1.75-.67-.45-.91-1.66-2-1.36-1,.28-.44,1.26-.57,1.92-1.93,9.69-14.46,14.96-21.41,13.8-1.56-.26-3.07-1.32-4.43-2.26-8.54-5.82-14.62-13.46-16.24-23.87-1.85-11.94,4.51-18.35,15.1-21.32,2.26-.63,4.33,1.22,7.11.44Zm-3.54,4.67c-5.6-.03-11.2,5.38-9.79,9.81,2.85,8.98,7.55,16.91,15.26,22.76,3.38,2.56,6.6,1.5,9.62-.43,3.13-2.01,4.56-5.1,3.76-8.79-1.84-8.49-6.24-15.48-12.93-21.01-1.79-1.48-3.83-2.4-5.92-2.34Z" style="fill: #77afe0;"/>
    <path d="m1236.22,49.15c0,3.45.2,6.94-.06,10.39-.24,3.11.68,4.52,3.94,4.05.83-.12,1.82-.03,2.56.33,1.96.95,1.85,2.83,1.64,4.59-.25,2.09-1.97,1.1-2.99,1.11-6.68.06-13.35-.02-20.03-.04-1.68,0-3.25.16-3.48-2.31-.21-2.27.6-3.06,2.77-3.23,3.24-.25,4.04-1.97,4.24-5.36.81-13.67.5-27.35,1.27-41.01.2-3.54-.98-5.32-4.26-5.36-3.12-.04-2.37-2.01-2.47-3.76-.13-2.45,1.67-1.67,2.87-1.7,2.27-.07,4.54.1,6.8,0,3.04-.13,5.99-.37,6.21,3.95.1,1.99,1.36,1.66,2.19.63,4.61-5.72,11.03-4.79,17.1-4.5,3.71.18,6.97,2.03,9.36,5.07,7.57,9.61,6.79,26.57-.08,35.31-6.56,8.34-16.7,9.45-25.52,2.98-.57-.42-.85-1.28-2.08-1.18Zm20.88-19.25c.48-3.21-.14-6.41-.76-9.6-.98-5.06-3.67-7.46-8.88-8.03-3.69-.4-6.61,1.62-8.73,5.77-2.82,5.53-1.84,11.43-1.89,17.24-.03,3.46,1.19,6.56,3.19,9.31,2.14,2.95,5.16,4.48,8.8,3.75,3.57-.72,5.94-3.05,6.82-6.67.94-3.84,1.97-7.67,1.44-11.76Z" style="fill: #77afe0;"/>
    <path d="m1295.55,56.07c-1.54,4.76-3.17,8.87-4.12,13.12-.42,1.89,2.22,1.91,3.49,2.72,1.86,1.19,4.54,1.58,3.19,4.97-.61,1.53-1.34,2.08-2.76,1.58-6.72-2.38-13.55-4.35-20.45-6.14-1.34-.35-3.27-.96-2.33-3.36.76-1.92,1.41-3.03,3.88-1.91,2.08.94,2.5.15,3.71-2.29,5.85-11.83,8.06-24.82,12.05-37.24.41-1.28.93-2.53,1.44-3.77,1.16-2.79,1.1-5.16-2.2-6.41-2.06-.78-2.31-2.09-1.69-4.14.83-2.71,2.71-1.11,3.79-.9,3.01.57,5.89,1.82,8.89,2.52,2.31.54,2.87,1.74,2.09,3.76-.32.84-.87,1.75-.08,2.4.76.62,1.6-.05,2.4-.45,7.83-3.89,18.87-1.05,23.19,5.06,2.88,4.07,3.76,8.79,3.36,13.41-.71,8.15-3.28,15.51-9.33,21.8-7.63,7.95-22.83,6.19-27.34-3.22-.15-.32-.44-.58-1.2-1.53Zm17.45-31.83c-3.46-.78-5.77,1.31-7.76,4.19-3.75,5.44-5.6,11.61-6.37,18.02-.79,6.55,2.25,10.94,8.23,12.94,3.1,1.04,7.58-1.87,10.35-7.05,3.23-6.02,4.83-12.53,4.82-19.36,0-5.86-3.01-8.71-9.26-8.75Z" style="fill: #77afe0;"/>
    <path d="m1165.61,53.08c-.03.5-.05,1.01-.08,1.51-.29,5.07-.3,5.24,4.95,5.33,2.71.05,2.45,1.9,2.97,3.49.7,2.13-1.16,1.91-2.12,2.19-5.61,1.62-11.26,3.14-16.91,4.64-1.5.4-2.99.53-3.57-1.49-.45-1.55-.7-3.18,1.24-3.69,4.68-1.22,4.9-5.07,5.2-8.69.66-7.93.95-15.9,1.61-23.84.55-6.67,1.41-13.31,2.11-19.97.14-1.37.18-2.76.21-4.14.05-1.98-.99-5.02.37-5.71,3.02-1.53,6.6-2.06,10.01-2.68,1.41-.25,1.85,1.49,2.53,2.47,10.01,14.45,20.04,28.88,29.94,43.4,1.55,2.27,3.04,3.85,6.02,3.24,2.35-.48,3.75.5,4.1,2.96.4,2.76-1.87,2.52-3.35,2.93-6.36,1.77-12.75,3.39-19.12,5.11-1.24.33-2.72.92-3.11-.77-.35-1.51-1.33-3.52,1.14-4.48.69-.27,1.28-.83,1.98-1.09,2.23-.82,2.53-1.97,1.07-3.91-1.73-2.31-3.3-4.75-4.76-7.24-.98-1.67-2.09-2.16-3.99-1.61-5.33,1.54-10.71,2.94-16.08,4.36-1.67.44-2.56,1.23-2.28,3.16.21,1.48.04,3.01.04,4.52-.03,0-.06,0-.09,0Zm2.42-39.98c-.61,9.12-1.17,17.44-1.76,26.13,4.96-1.29,9.49-2.55,14.07-3.63,2.19-.52,2.21-1.39,1.09-3.06-3-4.5-5.85-9.1-8.82-13.62-1.2-1.82-2.06-3.93-4.58-5.82Z" style="fill: #77afe0;"/>
    <path d="m1418.55,393.42c-2.39-5.89-2.92-11.75.16-17.37,5.28-9.65,10.49-10.55,20.22-6.19,7.81,3.5,14.72,8.7,21.84,13.42,2.3,1.53,3.6,1.34,5.36-.58.85-.93,1.51-2.96,3.51-1.98,2.08,1.02,3.95,1.82,1.73,4.84-3.64,4.95-6.76,10.28-10.11,15.44-.81,1.25-1.49,2.79-3.35,1.1-1.1-.99-3.68-.89-1.9-3.63,1.88-2.88.69-4.78-2.33-6.34-6.85-3.53-12.59-8.95-19.9-11.73-3.17-1.21-6.19-2.1-8.96.88-3.16,3.42-3.63,7.3-2,11.47,1.18,3.02,3.45,5.2,6.12,6.99,4.94,3.3,9.89,6.57,14.78,9.95,1.7,1.18,3.02,1.78,4.69-.19.85-1.01,2.28-2.08,3.76-1.83,2.65.46,3.18,2.25,1.62,4.64-3.42,5.23-6.99,10.37-10.16,15.75-1.06,1.79-1.99,1.56-3.26.94-1.24-.61-2.94-1.07-1.68-3.17,2.14-3.58.78-5.87-2.59-7.93-7.91-4.85-15.67-9.94-23.4-15.07-1.63-1.08-2.43-.37-3.5.62-1.16,1.07-2.15,2.73-3.76,2.84-2.47.16-3.69-2.58-2.3-4.77,1.21-1.91,2.44-3.81,3.67-5.71q3.4-5.28,9.16-2.49c.74.36,1.38.49,2.58.1Z" style="fill: #77afe0;"/>
    <path d="m1444.31,124.44c7.04.68,12.35,3.21,16.44,8.27,4.3,5.32,4.11,11.47-.62,16.39-6.25,6.5-14.28,10.5-21.64,15.43-4.48,3-4.97,3.4-2.49,7.8,2.03,3.61-2.55,2.01-2.87,4.09-.17,1.12-1.33-.44-1.82-1.22-3.49-5.59-7-11.18-10.51-16.75-.61-.97-1.46-1.96.21-2.66,1.2-.5,2.3-2.68,3.78-.68,2.82,3.8,5.33,1.91,8.14-.04,4.33-3.01,8.9-5.68,13.21-8.72,2.9-2.05,6.56-3.71,6.94-7.89.6-6.51-6.46-11.85-12.89-9.44-7.89,2.95-14.9,7.6-21.64,12.6-1.62,1.2.11,2.56.33,3.85.23,1.34,1.39,2.68-1.05,3.76-2.23.99-3.04,0-3.96-1.37-3.05-4.51-6.07-9.05-9-13.63-.94-1.47-1.86-3.2.2-4.57,1.76-1.17,3.53-.85,4.56.93,1.58,2.72,3.22,1.5,4.95.39,7.94-5.09,15.82-10.28,23.85-15.22,2.12-1.3,2.06-2.49.99-4.25-1.05-1.75-1.94-3.53.59-4.84,1.38-.72,2.51-1.14,3.6.78,1.7,2.98,3.74,5.78,5.79,8.55,1.05,1.43.86,2.34-.4,3.48-1.48,1.34-2.75,2.9-4.69,4.98Z" style="fill: #77afe0;"/>
    <path d="m1341.23,462.64c.06-5.91,2.68-10.59,7.05-14.45,4.53-4,9.46-7.02,15.68-7.68,8.32-.88,14.15,3.2,19.11,9.12,6.28,7.49,9.52,15.87,7.31,25.79-.4,1.77-1.19,3.34-2.32,4.68-3.61,4.29-7.9,7.72-13.12,9.91-9.14,3.83-17.51,2.16-23.95-5.32-4.57-5.31-7.88-11.46-9.71-18.29-.31-1.17-.04-2.5-.04-3.75Zm40.23,11.68c-2.31-10.27-7.13-19.13-15.89-25.34-3.55-2.51-7.27-.66-10.45,1.66-2.92,2.13-5.11,5.18-3.99,8.67,2.86,8.93,7.48,16.9,14.7,23.19,3.22,2.8,6.46,2.12,9.69.37,3.3-1.78,6.25-3.95,5.94-8.55Z" style="fill: #77afe0;"/>
    <path d="m1043.11,432.63c-.88-6.71,3.67-11.38,7.7-15.58,3.88-4.04,8.24-8.03,14.48-9.12,12.19-2.13,18.87.46,25.13,11.12,5.27,8.98,3.62,16.95-4.58,24.9-3.88,3.76-5.29,3.74-8.57-.8-4.05-5.61-9.51-9.86-13.74-15.29-2.78-3.58-3.8-3.31-6.59.23-6.92,8.75-3.22,18.71,7.99,21.55,1.07.27,2.22.88,3.21.69,4.28-.82,3.25,2.97,3.39,4.53.21,2.36-2.34,1.36-3.79,1.58-10.27,1.54-26.45-13.08-24.62-23.81Zm32.62-16.99c-3.49-.44-6.25,1.6-9.12,3.44-1.51.97-1.75,1.73-.38,3.12,2.92,2.96,5.68,6.07,8.48,9.13q3.85,4.22,7.34-.24c.39-.49.78-.99,1.09-1.53,3.82-6.58.02-13.91-7.41-13.93Z" style="fill: #77afe0;"/>
    <path d="m1341.11,72.12c.64-12.08,8.74-26.37,21.02-29.24,3.56-.83,6.63.1,9.77,1.06,6.17,1.88,11.51,5.29,15,10.72,4.41,6.86,2.96,14.15-.24,20.97-3.92,8.35-9.72,14.74-19.4,16.85-3.16.69-5.71.43-8.44-.98-5.48-2.83-10.85-5.75-14.62-10.91-2.03-2.78-3.46-5.66-3.09-8.48Zm38.55-12.9c.47-1.48.15-3.19-1.07-4.61-3.49-4.04-10.17-7.14-15.56-1.37-4.78,5.12-8.35,10.97-11.1,17.37-2.19,5.1-1.13,9.16,3.21,12.17,4.56,3.15,8.92,2.86,12.88-1.13,4.57-4.6,7.93-10.06,10.48-15.98.81-1.88,1.6-3.91,1.16-6.45Z" style="fill: #77afe0;"/>
    <path d="m1061.44,112.36c2.56,3.21,6.13,4.95,9.96,6.14,3.52,1.09,9.04-1.95,11.09-5.95,1.65-3.23,2.68-6.67,2.22-10.35-.43-3.43,2.43-2.37,3.99-3.02,2.18-.9,2.21,1.01,2.39,2.19.88,5.87-.39,11.35-3.69,16.25-4.59,6.84-10.54,11.49-19.37,10.86-3.82-.27-7.31-1.89-10.28-4.01-6.5-4.63-11.42-10.75-14.45-18.18-2.29-5.61,2.11-16.84,7.92-20.82,1.83-1.26,3.56-2.86,5.59-3.61,6.96-2.59,13.47-1.41,19.37,3.1.8.61,1.41,1.48,2.25,2,3,1.85,3.11,3.55.57,6.19-6.01,6.25-11.72,12.79-17.56,19.22Zm-10.15-14.01c.11,3.43,2.5,6.49,5.13,9.41,1.16,1.28,1.75-.05,2.34-.68,2.91-3.13,5.59-6.48,8.68-9.41,2.6-2.47,2.45-4.18-.54-5.89-.54-.31-1.03-.73-1.57-1.03-6.61-3.66-14-.05-14.02,7.6Z" style="fill: #77afe0;"/>
    <path d="m1486.47,343.72c-.36,3.05-.53,6.04-1.09,8.96-1.17,6.1-4.33,7.86-10.42,5.82-9.94-3.33-19.91-6.61-29.72-10.3-3.32-1.25-4.82-1.23-5.32,2.64-.16,1.24-.18,3.17-2.07,3.65-2.07.53-4.08-1.55-3.64-3.72,1.29-6.38,1.35-6.53-5.03-9.22-2.98-1.26-3.97-2.83-3.02-5.97,1.57-5.17,1.46-5.2,6.89-3.81,7.09,1.82,7.14,1.83,9.03-5.36.55-2.09.92-3.6,3.8-2.66,2.64.87,2.66,2.18,1.92,4.36-2.66,7.82-2.6,7.8,5.23,10.42,7.53,2.52,15.01,5.17,22.54,7.68,4.13,1.38,4.61,1,5.61-3.67.8-3.74,2.21-4.76,4.39-3.2,1.7,1.22.31,3.01.9,4.37Z" style="fill: #77afe0;"/>
    <path d="m1445.83,209.08c-.7-.03-.97-.94-1.45-1.6-2.81-3.81-4.72-8.12-6.69-12.39-1.16-2.52.68-5.68,3.91-6.78,8.16-2.78,16.33-5.53,24.49-8.29,1.88-.63,3.77-1.2,5.65-1.85,4.45-1.53,4.43-1.54,2.55-5.88-.47-1.1-.83-2.24-1.24-3.37,1.3-.45,1.66-3.77,3.99-1.25.36.39.97.62,1.36,1.13,1.46,1.87,1.22,5.39,4.1,5.65,2.32.22,4.9-.61,7.12-1.56,1.94-.83,2.75-.3,3.44,1.32.05.12.09.24.15.35q3.47,6.42-3.18,8.93c-4.91,1.85-5.09,2.28-3.16,7.22.23.58.48,1.15.69,1.73.41,1.15.79,2.32,1.18,3.48-1.65.46-3.28.97-4.95,1.35-.67.15-1.02-.29-1.22-1.04-.28-1.05-.89-2.01-1.29-3.04-2.21-5.67-2.23-5.76-7.8-3.93-7.98,2.62-15.92,5.36-23.85,8.11-2.46.85-2.53,3-2.23,5.08.15,1.05.61,2.12,1.17,3.04,1.8,2.98-.94,2.81-2.74,3.57Z" style="fill: #77afe0;"/>
    <path d="m1388.18,427.54c-.87.52-1.95.97-2.78,1.69-2.32,2-3.85.89-5.55-.97-1.16-1.27-.67-2.04.36-2.7,3.85-2.46,6.72-5.99,9.92-9.14,1.81-1.78,2.86-1.63,4.55.11,7.97,8.21,16.2,16.18,24.04,24.52,2.39,2.54,4.25,3.1,6.82.87,1.91-1.65,3.07-.96,4.52.82,1.11,1.36.89,1.97-.2,3-5,4.77-9.92,9.61-14.92,14.37-.69.66-1.6,2.44-2.59,1.02-.81-1.16-3.34-2.34-1.59-4.29,3.5-3.9,1.49-6.47-1.54-9.35-6.29-5.96-12.36-12.16-18.53-18.25-.7-.69-1.25-1.6-2.52-1.71Z" style="fill: #77afe0;"/>
    <path d="m1412.84,82.04c-.81-1.29-1.46-2.69-2.45-3.8-1.2-1.36-1.16-2.36.27-3.38,1.27-.9,2.29-2.05,3.96-.17,2.75,3.09,5.75,5.99,8.85,8.73,1.83,1.62,1.53,2.52-.05,4.12-8.14,8.19-16.1,16.57-24.26,24.75-1.58,1.59-2.07,2.77-.46,4.48.51.54.9,1.22,1.21,1.9.87,1.91-.36,3.09-1.63,4.16-1.43,1.2-1.99-.39-2.69-1.03-4.79-4.39-9.55-8.82-14.26-13.31-.76-.72-2.52-1.39-.92-2.92,1.22-1.16,2.41-3.21,4.35-1.56,4.04,3.44,5.89,1.24,8.71-2.04,5.13-5.98,11.11-11.23,16.74-16.78.97-.96,2.14-1.76,2.63-3.15Z" style="fill: #77afe0;"/>
    <path d="m850.18,349.91c6.26-4.55,8.79-5.01,13.63.21,1.12,1.21,1.51.29,1.98-.29,2.96-3.63,7.11-2.69,10.42-1.75,3.56,1.01,3.74,4.9,3.63,8.32-.08,2.39,0,4.78,0,7.17,0,1.15.43,2.18.79,3.26.4,1.21,2.88,1.05,2.05,2.62-.84,1.58-2.71.47-4.11.6-1.87.18-3.77.1-5.66.12-.6,0-1.31.19-1.59-.6-.23-.66-.1-1.37.56-1.6,3.28-1.14,2.5-3.88,2.54-6.28.04-2.26,0-4.53,0-6.79,0-1.94-.69-3.52-2.64-4.09-2.16-.63-3.97.12-5.25,1.99-1.69,2.48-2.05,5.23-1.98,8.19.07,2.94-.21,5.86,3.3,7.13.6.22.63.74.57,1.22-.1.83-.78.83-1.41.83-3.02,0-6.04,0-9.06-.01-.57,0-1.31.25-1.55-.59-.24-.83.07-1.71.78-1.91,3.01-.84,2.65-3.26,2.69-5.46.05-2.51.1-5.04-.14-7.54-.19-1.86-.66-3.77-3.18-4-2.37-.22-4.14.43-5.28,2.67-1.33,2.61-1.06,5.39-1.02,8.14.04,2.64-.75,5.75,3.04,6.81.22.06.38.87.32,1.3-.09.64-.74.58-1.21.59-3.27.02-6.54.01-9.82,0-.46,0-1.04.07-1.19-.6-.15-.69.07-1.16.74-1.51,1.6-.83,2.9-1.81,2.81-3.96-.16-4.09.42-8.22-.72-12.23-.21-.75-1.11-.29-1.65-.5-.9-.34-1.73-1.19-1.05-1.96,1.77-1.96,4.53-1.71,6.84-2.31,2.03-.52.45,2.06,1.79,2.83Z" style="fill: #77afe0;"/>
    <path d="m545.62,351.69c7.11,2.68,8.38,4.05,8.27,8.84-.11,4.82-2.82,8.01-7.98,9.01-5.6,1.08-11.3.36-16.95.64-.58.03-1.35.11-1.47-.75-.1-.71-.28-1.56.72-1.85,2.78-.8,2.74-3.28,2.8-5.33.18-6.16.12-12.32.04-18.48-.03-1.98-.29-4.05-2.9-4.45-1.12-.17-.82-1.03-.89-1.72-.09-.98.44-1.36,1.34-1.28,5.49.45,11-.6,16.51.6,3.29.72,5.71,1.87,6.3,5.37.58,3.45-1.28,6.75-4.58,8.49-.42.22-.76.57-1.23.92Zm2.08,9.04c-.11-4.36-6.35-8.58-10.27-6.98-.74.3-.87.81-.86,1.45.05,3.13-.02,6.27.23,9.38.21,2.61,2.18,3.56,4.51,3.4,3.84-.26,6.49-3.41,6.39-7.25Zm-11.14-15.03c.61,1.62-1.33,4.41,1.05,5.46,2.14.94,4.62-.11,6.49-1.76,1.76-1.55,1.39-3.69,1.27-5.65-.19-3.12-2.36-4.32-6.11-4.49-3.89-.18-2.43,2.47-2.69,4.26-.09.62-.01,1.25-.01,2.18Z" style="fill: #77afe0;"/>
    <path d="m373.55,370.19c-2.27,0-4.53.01-6.8,0-.71,0-1.68.21-1.77-.84-.04-.53.29-1.4.71-1.61,3.06-1.56,2.87-4.35,2.86-7.1-.01-5.79-.02-11.58,0-17.37,0-2.13-.13-4.12-2.8-4.57-.73-.12-1.09-.47-1.09-1.23,0-.77.34-1.16,1.1-1.13,8.12.29,16.42-1,24.14,2.83,3.55,1.76,6.44,4.91,6.82,8.23.36,3.13.21,6.82-.71,10.18-2.66,9.69-9.06,12.17-18.29,12.52-1.38.05-2.77,0-4.16,0,0,.03,0,.07,0,.1Zm.59-17.64h.14c0,3.9-.04,7.79.02,11.68.02,1.23.11,2.52,1.68,3.02,5.28,1.7,12-1.57,13.62-6.9,1.02-3.37,1.26-6.75.94-10.43-.73-8.37-7.09-10.98-12.8-11.36-2.48-.16-3.75.7-3.63,3.41.15,3.51.04,7.04.04,10.56Z" style="fill: #77afe0;"/>
    <path d="m705.35,350.45c3.21,7.62.09,12.21-8.43,12.37-1.64.03-4.56-1.11-4.55,1.66,0,2.7,2.93,1.87,4.76,2.03,2,.18,4.03.12,6.03.33,6.25.65,6.87,5.97,3.83,10.17-3.96,5.48-9.75,6.38-15.69,5.19-5.08-1.01-5.85-6.61-2.99-9.88,1.11-1.28,1.93-2.13.42-3.58-.3-.29-.5-1.08-.32-1.41,2.25-4.09.2-7.78-.58-11.76-1.36-6.9,4.31-9.34,10.89-8.51,2.23.28,4.45.35,6.66.62,1.16.15,3.22-1.03,3.32,1.06.12,2.36-2.27.47-3.34,1.71Zm-8.33,29.11c1.1-.17,2.25-.21,3.3-.54,2.49-.78,3.61-2.56,3.23-5.15-.41-2.8-2.61-2.02-4.36-2.04-1.5-.02-3-.04-4.5.01-2.87.09-4,2.06-2.83,4.73,1,2.29,2.82,3,5.16,2.99Zm4.28-23.63c0-4.22-1.87-6.93-4.51-6.71-3.22.27-3.8,2.71-3.85,5.38-.06,3.45,1.97,6.05,4.73,5.91,3.26-.17,3.51-2.61,3.63-4.57Z" style="fill: #77afe0;"/>
    <path d="m710.07,164.79c7.16-.83,10.88,3.64,10.81,10.13-.07,6.13-2.96,9.86-11.43,10.29-4.59.23-10.16-3.93-10.45-10.44-.26-5.84,4.47-9.99,11.07-9.99Z" style="fill: #77afe0;"/>
    <path d="m625.28,347.63c3.4,0,6.25-.02,9.11.02.66,0,1.72-.33,1.67.82-.02.45-.71,1.18-1.18,1.26-3.53.59-5.37,3.53-7.92,5.48-.95.73-1.25,1.46-.2,2.37,3.56,3.08,5.32,8.01,10.1,9.85.75.29.94.85.75,1.48-.22.73-.73,1.43-1.57,1.36-2.73-.24-5.94,1.43-7.65-2.63-.94-2.23-3.03-3.97-4.61-5.92-.56-.69-1.15-1.49-2.17-1.08-.9.36-.45,1.29-.53,1.98-.24,2.1.15,4.06,2.02,5.28.72.47,1.24.78.97,1.65-.25.81-.98.6-1.57.6-2.77.02-5.53.02-8.3.02-.6,0-1.31.19-1.62-.56-.37-.88.19-1.46.83-1.86,2.53-1.56,2.64-3.96,2.57-6.56-.11-4.52.02-9.05-.04-13.57-.06-3.95,1.41-8.51-3.98-10.02.23-1.44.97-1.19,1.53-1.3q7.71-1.55,7.71,6.38v13.61c5.54-3.62,6.31-5.02,4.07-8.65Z" style="fill: #77afe0;"/>
    <path d="m1313.92,318.07c.15,7.57-3.57,10.12-10.65,10.66-5.54.42-10.65-5.28-10.42-10.59.22-5.18,3.86-10.58,10.94-10.55,6.01.02,10.14,4.28,10.14,10.48Z" style="fill: #77afe0;"/>
    <path d="m733.23,370.36c-1.77-.34-3.69.22-5.62-.97-3.25-1.99-4.57-4.56-3.7-8.24.34-1.46,1.33-1.22,2.26-1.38,1.5-.25,1.36.74,1.62,1.79,1.43,5.76,5.82,8.16,10.08,5.64,3.72-2.2,3.96-6.74.27-9.13-2.62-1.7-5.5-3.03-8.34-4.37-4.13-1.95-6.08-6.3-5.09-11.7.62-3.36,3.99-5.65,8.46-5.69,2.01-.02,4.06-.17,6.03.12,3.92.58,5.78,3.91,4.54,7.65-.29.88-.88,1.11-1.67,1.23-1.18.19-1.38-.53-1.73-1.44-1.15-2.99-2.52-5.82-6.56-5.32-3.94.49-5.59,4.13-3.42,7.38,1.25,1.87,3.13,2.83,5.03,3.79,1.68.84,3.41,1.6,5.04,2.52,4.85,2.74,6.52,6.23,5.3,10.88-1.16,4.41-4.6,6.97-9.73,7.22-.88.04-1.76,0-2.78,0Z" style="fill: #77afe0;"/>
    <path d="m659.77,358.95c0-1.63.03-3.27,0-4.9-.04-1.45-.42-2.73-2.21-2.8-1.08-.04-1.59-.59-1.68-1.6-.12-1.41.95-1.11,1.77-1.27,1.72-.33,3.44-.69,5.12-1.16.8-.23,1.83-.42,1.91.39.39,4.05,2,1.32,3.48.83,6.11-2,12.01-1.32,11.96,6.5-.02,2.89-.02,5.78.04,8.67.03,1.65.13,3.4,1.83,4.26.81.41,1.25.78.97,1.64-.33,1.02-1.23.6-1.91.61-2.52.04-5.03.04-7.55.02-.7,0-1.62.37-1.92-.62-.25-.83.45-1.34.92-1.92,2.57-3.2,3.18-12.18,1.08-15.46-1.52-2.36-5.03-2.03-6.92.7-1.73,2.5-1.86,5.35-1.75,8.26.1,2.81-.63,5.92,3.17,7.1.27.08.47.82.47,1.25,0,.63-.57.7-1.08.7-3.27,0-6.54.03-9.81.01-1.51,0-1.71-.78-.99-1.94q3.11-5.04,3.1-9.29Z" style="fill: #77afe0;"/>
    <path d="m763.99,364.22c1.47-3.73,2.9-6.65,3.71-9.74.41-1.55,1.05-3.81-1.48-4.79-.82-.32-.95-1.14-.79-1.9.17-.82.92-.68,1.53-.68,2.14,0,4.27.02,6.41-.01,1.74-.02,2.25,1.16,1.17,2.06-4.14,3.43-4.78,8.6-6.92,13.01-2.56,5.3-4.33,10.96-7.25,16.1-1.62,2.85-3.85,4.35-7.29,4.19-2.09-.09-2.39-1.38-2.65-2.84-.36-2.04,1.13-1.71,2.37-1.79,3.95-.25,6.1-2.83,7.71-6.08.34-.69.48-1.29.1-2.08-2.8-5.82-5.55-11.67-8.32-17.51-.11-.22-.24-.43-.36-.64-.8-1.32-3.7-1.83-2.27-3.88,1.01-1.44,3.27-.34,4.97-.46,1.75-.13,3.52-.09,5.28-.09.72,0,1.62-.18,1.86.81.18.76.04,1.57-.87,1.81-3.19.83-2.1,2.83-1.29,4.7,1.29,2.99,2.66,5.95,4.38,9.79Z" style="fill: #77afe0;"/>
    <path d="m478.73,370.37c-9.03.13-10.78-5.07-10.93-12.21-.14-6.6,4.08-11.7,12.18-11.3,8.28.42,11.46,5.83,11.06,12.15-.46,7.37-4.66,11.5-12.32,11.35Zm.06-20.45c-2.08-.44-3.26.84-4.17,2.7-1.89,3.88-1.44,7.89.2,11.51.92,2.03,2.72,4.63,5.79,3.76,2.88-.81,4.39-2.76,4.44-6.09.03-2.17-.02-4.33-.17-6.47-.25-3.52-2.46-5.44-6.09-5.41Z" style="fill: #77afe0;"/>
    <path d="m411.27,370.37c-6.41-.12-11.16-5.42-11.08-12.37.08-6.64,5.37-11.29,12.69-11.12,6.76.15,11,4.85,10.86,12.05-.13,7.25-4.86,11.59-12.47,11.44Zm6.34-10.91c0-1.38.25-2.82-.05-4.13-.6-2.61-1.59-4.94-4.8-5.48-3.44-.57-5.6,1.21-6.17,4.04-.75,3.74-.99,7.77,1.49,11.18,1.16,1.6,2.52,3.38,4.85,2.89,1.98-.42,3.63-1.52,4.39-3.64.57-1.61.11-3.24.3-4.86Z" style="fill: #77afe0;"/>
    <path d="m570.11,370.32c-7.9.2-11.36-3.39-11.77-11.56-.34-6.76,4.92-11.92,11.58-11.92,6.85,0,11.34,3.15,11.53,11.27.16,7.33-3.32,12.14-11.34,12.21Zm5.64-11.46c.57-1.55-.4-3.69-1.11-5.76-.95-2.79-3.26-3.36-6.06-3.25-2.62.11-3.73,2.03-4.03,3.75-.62,3.55-.8,7.29.92,10.7,1.05,2.08,2.61,3.98,5.17,3.61,2.62-.38,4.46-2.12,4.91-4.9.18-1.11.12-2.25.21-4.16Z" style="fill: #77afe0;"/>
    <path d="m597.38,370.39c-6.44.04-11.82-3.81-11.84-8.47-.04-10.15,3.81-15.11,11.68-15.09,7.86.02,11.43,4.53,11.74,14.81.11,3.83-6.35,8.72-11.57,8.75Zm5.62-11.13c.46-1.51-.49-3.26-.93-5.02-.59-2.38-1.83-4.2-4.83-4.4-3.06-.2-4.48,1.15-5.61,3.79-1.45,3.37-.89,6.65.29,9.7.91,2.36,2.69,4.91,5.75,4.58,3.26-.36,4.76-2.85,5.16-5.97.1-.74.09-1.5.16-2.68Z" style="fill: #77afe0;"/>
    <path d="m828,370.34c-5.25.63-8.11-2.69-10.14-6.71-2.1-4.15-.66-10.43,2.73-13.82,3.43-3.44,7.49-3.61,11.79-2.06,3.07,1.11,5.77,6.48,5.07,9.68-.33,1.5-1.31,1.61-2.51,1.62-3.14.01-6.29.12-9.43.08-3.04-.04-2.91,1.68-2.03,3.64,2.01,4.5,6.05,5.74,10.66,3.47.84-.41,1.77-2.19,2.74-.55.68,1.15-.9,1.8-1.6,2.54-1.97,2.11-4.57,2.31-7.27,2.11Zm-.77-13.43c1.43-1.22,4.6,1.57,4.52-2.06-.05-2.35-.52-5.07-4.23-5-3.51.07-4.23,2.47-4.39,4.97-.23,3.65,2.9.81,4.1,2.09Z" style="fill: #77afe0;"/>
    <path d="m784.94,370.3c-1.01,0-2.01.05-3.02,0-3.79-.21-5.97-4.18-4.23-7.58.37-.73.98-.6,1.56-.71,1.42-.27,1.56.84,1.98,1.73,1.92,4.09,3.36,4.71,6.76,3.69,1.42-.43,2.28-.96,2.43-2.37.16-1.47-.82-2.36-1.97-2.94-2.02-1.01-4.16-1.78-6.15-2.83-2.7-1.43-5.56-3.12-4.58-6.78.92-3.44,3.61-5.18,7.19-5.62,2.43-.3,4.69.41,7,.81,1.4.24,2.54,5.84,1.3,6.51-1.28.69-2.42.14-2.73-1.49-.44-2.36-2.14-3.27-4.29-3.52-1.32-.15-2.6.21-3.15,1.54-.62,1.51.03,2.76,1.42,3.47,1.9.97,3.87,1.8,5.81,2.67,4.67,2.11,6.06,4.3,4.67,8.85-1.02,3.33-3.98,4.56-7.37,4.62-.88.02-1.76,0-2.64,0,0-.02,0-.03,0-.05Z" style="fill: #77afe0;"/>
    <path d="m504.11,351.09c1.08-1.04,1.79-1.95,2.7-2.58,2.02-1.41,4.64-1.63,6.29-.27,1.46,1.2.57,3.78.31,5.73-.12.95-1.03,1.25-2.04,1.22-1.12-.04-1.29-.59-1.57-1.59-.76-2.63-2.34-2.83-4.11-.66-1.97,2.41-1.74,5.3-1.93,8.19-.21,3.21.75,5.27,3.91,6.18,1.09.32,1.12,1.33.94,2.15-.22,1-1.19.67-1.89.68-3.27.02-6.54.02-9.81,0-.7,0-1.61.26-1.86-.74-.17-.68.39-1.04.86-1.49,4.66-4.44,2.43-9.91,2.15-15.08-.02-.35-.16-.78-.4-1-.95-.89-4.1-1.19-2.23-2.8,1.77-1.53,5.02-1.78,7.61-1.75,1.41.02.48,2.41,1.06,3.81Z" style="fill: #77afe0;"/>
    <path d="m807.14,339.39c0,1.62.11,2.88-.02,4.12-.32,2.92.11,4.97,3.85,4.22,1.11-.22,2.31-.2,2.23,1.6-.09,1.95-1.55,1.43-2.47,1.3-2.94-.42-3.74.81-3.52,3.58.23,3,0,6.04.1,9.05.1,2.97,1.21,4.95,4.7,3.88.72-.22,1.44-.7,1.81.38.32.94-.43,1.3-1.05,1.74-4.43,3.15-10.14.79-10.7-4.53-.24-2.24-.08-4.52-.11-6.79-.03-2.7.31-5.34-2.89-6.99-1.2-.62-1.89-3.06,1-3.19,1.63-.07,1.72-.8,1.79-2.09.23-4.37.28-4.36,5.28-6.27Z" style="fill: #77afe0;"/>
    <path d="m459.25,370.38c-4.2.06-6.07-1.5-6.32-5.54-.23-3.64-.15-7.3-.13-10.94,0-1.3.18-2.46-1.75-2.3-1.6.13-2.19-1.25-2.31-2.36-.14-1.22,1.15-1.54,2.16-1.51,1.56.05,1.5-.91,1.48-1.96-.02-1.01-.08-2.02.02-3.02.26-2.36,2.54-2.92,4.04-3.12,2.23-.3,1.26,2.01,1.17,3.03-.3,3.48.08,5.96,4.58,5.09.74-.14,2.27-.63,2.1,1.15-.13,1.33-1.01,2.04-2.35,1.76-3.79-.79-4.06,1.39-3.88,4.28.19,3.01.07,6.04.17,9.05.09,2.71,1.45,3.87,4.21,3.27.68-.15,1.67-1.26,2.07.31.3,1.17-.75,1.51-1.47,1.89-1.23.64-2.58,1-3.78.92Z" style="fill: #77afe0;"/>
    <path d="m438.54,370.31c-6.01.67-8.86-3.23-10.63-7.65-1.73-4.33-.23-8.67,2.65-12.22,2.77-3.41,6.4-4.4,10.75-3.04,3.99,1.25,5.07,2.66,4.28,6.3-.18.85-.46,1.41-1.38,1.46-.73.03-1.58.23-1.63-.93-.14-3.1-1.84-4.24-4.86-4.35-3.61-.14-4.16,2.88-4.71,4.93-1.08,4-.16,8,3.02,10.98,2.47,2.31,5.26,1.93,7.99.24.64-.4,1.25-1.64,2.14-.45.71.95-.14,1.59-.75,2.22-1.94,2.01-4.25,3.02-6.89,2.53Z" style="fill: #77afe0;"/>
    <path d="m649.57,357.1c0,2.39-.05,4.78.02,7.16.03,1.1-.01,2.34,1.19,2.99.99.54,2.37.96,1.68,2.4-.51,1.05-1.81.44-2.75.47-2.39.06-4.78.05-7.17.03-.7,0-1.59.27-1.83-.76-.16-.67.12-1.42.72-1.59,3.21-.91,2.59-3.54,2.68-5.82.08-2.01,0-4.02.02-6.03.03-2.03.2-4.08-2.42-4.82-.53-.15-1.35-.79-1-1.39,1.54-2.64,4.61-1.57,6.87-2.57,1.64-.73,1.79.97,1.83,2.01.11,2.64.04,5.28.04,7.92h.14Z" style="fill: #77afe0;"/>
    <path d="m1378.97,402.04c3.78.03,6.11,2.1,6.1,5.44,0,3.78-3.92,8.33-7.02,8.16-2.57-.14-5.87-3.89-5.92-6.73-.07-4.09,2.73-6.9,6.85-6.87Z" style="fill: #77afe0;"/>
    <path d="m1437.21,72.18c.03,3.08-3.04,6.38-5.97,6.42-3.3.05-6.82-3.26-6.94-6.52-.12-3.38,2.98-6.51,6.41-6.47,3.17.04,6.47,3.37,6.5,6.57Z" style="fill: #77afe0;"/>
    <path d="m643.09,338.17c-.56-3.23,2.61-2.77,4.18-3.07,1.14-.22,2.44,1.86,2.39,3.47-.06,2.02-1.44,3.12-3.48,3.02-1.94-.1-3.34-.91-3.09-3.42Z" style="fill: #77afe0;"/>
    <path d="m1191.2,211.89c2.81.23,4.61,1.76,7.25,2.68-1.21-7.02-1.2-13.82-.91-20.61.19-4.31.77-8.6,3.52-12.27,1.71-2.29,3.4-3.14,6.37-1.86,11.35,4.9,23.17,7.58,35.64,6.91,7.87-.42,15.29-2.29,22-6.44,1.91-1.18,2.83-1.39,3.99.8,4,7.5,8.17,14.89,9.59,23.47.31,1.86.47,3.6,0,5.7,3.28-1.3,4.34-4.67,7.33-6.61-1.09,8.11-1.69,15.84-3.62,23.49-3.34,13.2-9.23,24.83-19.3,34.06-7.39,6.78-16.01,11.06-26.36,10.83-5.31-.12-10.05-2.25-14.69-4.59-11.37-5.74-17.98-15.64-23.25-26.67-4.32-9.04-6.81-18.57-7.57-28.91Z" style="fill: #77afe0;"/>
    <path d="m1264.09,272.03c-8.87,11.71-17.74,23.41-26.87,35.47-9.11-12.64-18-24.98-26.89-37.32,8.4,5.11,16.9,9.84,26.8,10.1,9.74.25,18.31-4.1,26.37-9.5.2.42.4.83.6,1.25Z" style="fill: #77afe0;"/>
    <path d="m1281.96,352.32c1.25,4.06-.79,4.93-4.23,4.39-.25-.04-.5,0-.76,0q-5.42,0-5.43,5.6c0,4.37-4.22,6.86-8.31,4.92-1.42-.68-.77-1.98-.79-2.99-.18-7.42-.15-7.54-7.72-7.47-2.84.03-3.95-.86-3.61-3.67.14-1.12.12-2.27,0-3.39-.17-1.68.51-2.33,2.14-2.06.12.02.25,0,.38,0,8.32-.26,8.39-.25,8.73-8.28.08-1.8.58-2.28,2.37-2.34,6.81-.25,6.97-.32,6.75,6.53-.1,3.12.46,4.83,3.99,4.11.6-.12,1.26.05,1.89-.03,3.61-.44,6.1.22,4.61,4.69Z" style="fill: #77afe0;"/>
    <path d="m1009.72,137.73c-.4-.2-.8-.4-1.2-.6.56-.51,1.12-.38,1.7-.04-.17.21-.33.42-.5.63Z" style="fill: #77afe0;"/>
  </g>
  <g>
    <path d="m1230.72,544.85c-2.49-1.28-5.11-.24-7.66-.43-1.23-.09-2.58.27-2.71-1.69-.11-1.71-.2-3.69,1.9-3.8,4.84-.25,4.85-3.2,4.74-6.87-.39-14.33-.63-28.66-.78-43-.03-2.51-.9-3.26-3.31-3.24-1.86.01-4.07.01-4.3-2.82-.18-2.17.1-3.53,2.89-3.34,3,.2,6.06.09,9.05-.25,3.31-.38,5.11.46,4.82,4.14-.05.64.54,1.33.98,2.35,5.8-8.97,14.39-8.83,22.84-6.42,7.64,2.18,10.01,9.26,11.66,16.29,1.49,6.34.41,12.44-1.49,18.57-2.27,7.3-8.19,12.37-15.76,13.13-5.71.58-10.91-.2-15.02-5.82,0,5.32,0,9.64,0,13.97,0,1.66.59,2.69,2.45,2.41,1.55-.23,2.95.66,4.4.63,2.94-.05,1.81,2.06,2.02,3.44.29,1.9-1.04,1.78-2.36,1.95-2.01.26-4.2-.8-6.03.79h-8.32Zm27.9-46.32c-.15-3.19-.66-6.34-2.02-9.34-1.54-3.41-4.42-4.55-7.8-4.81-3.5-.26-6.34.97-8.27,4.03-4.36,6.94-3.94,22.17.81,28.95,2.39,3.41,6.22,5.04,10.23,4.01,3.78-.97,5.7-3.77,6.45-7.48,1.03-5.08,2.37-10.14.6-15.37Z" style="fill: #cfcfe5;"/>
    <path d="m1289.14,269.62c7.91,3.41,14.48,8.32,20.59,13.81,12.61,11.31,22.62,24.56,28.86,40.43,3.43,8.73,5.69,17.79,7.09,27.06.37,2.46-.35,4.56-1.87,6.64-13.05,17.73-30.72,28.68-51.37,35.42-7.67,2.51-15.53,4.73-23.41,5.78-14.66,1.95-29.53,2.58-44.32,1.62-7.61-.49-15.25-1.51-22.84-2.75-9.93-1.61-19.19-5.06-28.5-8.59-12.48-4.74-23-12.43-32.56-21.45-3.7-3.49-6.65-7.81-9.7-11.93-2.47-3.34-.57-7.2.06-10.45,2.43-12.57,6.4-24.81,12.76-35.92,4.76-8.31,10.66-15.99,17.6-22.8,6.19-6.07,13.19-11.02,20.39-15.74.81-.53,1.82-1.51,3.35-.53-8.66,9.39-12.34,21.04-14.83,33.17-.57,2.77-.32,5.67-.93,8.49-.26,1.18-.34,2.14-1.71,2.51-5.96,1.6-9.73,5.83-12.92,10.78-4.7,7.28-6.64,15.39-7.35,23.88-.03.38-.17.9.02,1.11,2.88,3.3,3.92,7.43,5.38,11.4.57,1.55,2.27,1.47,3.88.68,1.94-.95,3-2.27,2.76-4.4-.21-1.78-1.27-2.98-3.04-3.44-7.34-1.89-7.6-2.1-6.71-9.16.88-6.97,3.51-13.38,7.09-19.37,7.57-12.65,24.68-12.84,33.42.27,4.54,6.8,6.34,14.47,7.12,22.42.39,3.97-1.59,5.86-5.74,5.73-2.01-.06-3.53.62-4.39,2.3-.67,1.31-.93,2.84.28,4.14,1.1,1.19,2.15,2.68,4.08,1.87,1.87-.78,3.64-1.76,3.55-4.27-.03-.96-.77-2.25.2-2.86,6.26-3.95,3.69-9.97,2.78-14.84-1.56-8.38-4.87-16.22-11.83-22.02-2.85-2.37-6.01-3.87-9.39-4.86-1.98-.57-2.42-1.53-2.23-3.18,1.52-13.32,4.53-26.18,13.06-36.95,3.68-4.65,7.47-9.52,13.99-10.66,1.69-.3,1.92-1.17.81-2.59-8.63-11.13-13.72-23.86-16.98-37.46-1.04-4.36-1.38-8.81-1.66-13.18-.47-7.43-.96-15.15.58-22.32.89-4.12,2.92-8.58,4.96-12.7,7.98-16.13,20.78-26.26,38.22-29.92,25.35-5.33,51.32,9.36,60.64,34.23,2.63,7.02,3.79,14.14,4.03,21.34.12,3.63,1.39,7.78.42,10.71-2.72,8.25-3.03,17-6.18,25.14-3.28,8.49-7.02,16.64-12.64,23.83-1.12,1.44-1.48,2.12.35,3.47,12.34,9.12,20.61,21.02,24.57,35.96.71,2.67.22,3.39-2.12,4.31-7.22,2.84-11.19,12.39-8.38,19.59,3.19,8.17,12.03,12.89,19.57,10.01,10.28-3.93,13.43-12.12,10.23-21.63-1.37-4.07-5.04-7.12-9.16-8.49-2.98-.99-4.53-2.02-5.34-5.28-2.44-9.77-7.12-18.49-13.81-26.08-.4-.46-1-.8-.8-2.28Zm-97.94-57.73c.76,10.34,3.24,19.87,7.57,28.91,5.27,11.03,11.88,20.93,23.25,26.67,4.64,2.34,9.38,4.47,14.69,4.59,10.35.23,18.97-4.05,26.36-10.83,10.07-9.23,15.95-20.86,19.3-34.06,1.94-7.65,2.54-15.38,3.62-23.49-3,1.94-4.05,5.31-7.33,6.61.46-2.11.3-3.84,0-5.7-1.41-8.59-5.59-15.97-9.59-23.47-1.17-2.19-2.09-1.98-3.99-.8-6.71,4.15-14.13,6.02-22,6.44-12.47.66-24.29-2.01-35.64-6.91-2.97-1.28-4.66-.43-6.37,1.86-2.75,3.67-3.33,7.95-3.52,12.27-.29,6.78-.3,13.58.91,20.61-2.64-.92-4.44-2.45-7.25-2.68Zm72.89,60.13c-.2-.42-.4-.83-.6-1.25-8.06,5.39-16.63,9.74-26.37,9.5-9.9-.25-18.4-4.98-26.8-10.1,8.89,12.34,17.78,24.68,26.89,37.32,9.14-12.06,18.01-23.76,26.87-35.47Zm17.87,80.29c1.5-4.47-1-5.12-4.61-4.69-.62.08-1.28-.1-1.89.03-3.53.72-4.09-.99-3.99-4.11.22-6.86.07-6.79-6.75-6.53-1.79.07-2.29.54-2.37,2.34-.34,8.03-.41,8.03-8.73,8.28-.13,0-.25.02-.38,0-1.63-.26-2.31.39-2.14,2.06.11,1.12.14,2.28,0,3.39-.35,2.81.77,3.7,3.61,3.67,7.57-.07,7.54.05,7.72,7.47.02,1.01-.63,2.31.79,2.99,4.1,1.94,8.31-.55,8.31-4.92q0-5.6,5.43-5.6c.25,0,.51-.03.76,0,3.44.54,5.47-.33,4.23-4.39Z" style="fill: #1d1ce6;"/>
    <path d="m98.36,185.38c-1.21,3.88-2.94,7.69-3.52,11.67-1.02,6.99-3.71,13.45-5.55,20.17-1.67,6.11-3.59,12.11-4.82,18.38-1.11,5.64-3.72,11.12-5.33,16.78-1.2,4.22-2.44,8.43-3.39,12.7-.59,2.67-3.77,4.77-1.76,8.13.25.42-.75,2.01-2.47,1.96-5.79-.17-11.59-.09-17.39-.05-1.64.01-2.25-.56-2.71-2.28-1.92-7.31-4.36-14.48-6.19-21.8-1.71-6.83-3.67-13.59-5.84-20.28-2.55-7.9-3.9-16.12-6.53-24.02-2.32-6.97-3.83-14.2-6.25-21.24-.04.8-.12,1.6-.12,2.4,0,24.17.04,48.35-.06,72.52-.01,3.01.67,4.29,3.95,4.24,4.67-.06,7.83,5.37,5.98,9.65-.51,1.19-1.45.77-2.23.77-10.59.03-21.18-.02-31.76.06-1.78.01-2.56-.43-2.33-2.29.12-.99.07-2.02.01-3.02-.14-2.21.03-3.66,3.03-3.94,3.19-.31,7.46-.78,9.06-2.87,1.6-2.09.55-6.26.56-9.53.02-22.66-.05-45.33.09-67.99.02-2.75-1.1-3.69-3.4-4.15-2.26-.45-4.5-1.02-6.76-1.45-1.86-.35-2.62-1.2-2.62-3.26,0-5.92-.12-5.92,5.89-5.92,10.08,0,20.17.11,30.25-.06,3.21-.05,4.28,1.51,4.77,4.24,1.36,7.68,3.47,15.12,6.26,22.44,1.26,3.31,1.35,7.18,2.54,10.65,2.2,6.43,4.05,13.03,5.9,19.51,2.06,7.21,3.88,14.6,5.77,21.91.87,3.37,1.47,6.89,3.49,10.7,1.58-8.26,4.12-15.58,6.2-22.97,1.87-6.66,4.3-13.37,6.42-20.08,2.41-7.64,4.92-15.24,7.25-22.9,2.15-7.09,4.07-14.24,6.22-21.33.38-1.27,1.29-2.17,3.07-2.16,11.34.1,22.69.08,34.03.02,1.64,0,2.2.45,2.13,2.12-.33,7.43,1.5,5.79-5.71,7.79-1.76.49-3.21,1.73-5.25,1.63-1.87-.09-1.08,1.65-1.08,2.56-.07,9.69-.04,19.39-.04,29.09,0,15.61.05,31.23-.05,46.84-.01,2.45.61,3.76,3.23,3.84,1.08.03,2.15.48,3.22.73,6.05,1.42,6.16,1.65,5.69,7.92-.11,1.46-.48,1.92-1.95,1.92-12.6-.05-25.21-.05-37.81,0-1.49,0-1.83-.5-1.93-1.93-.48-6.6.1-7.27,7.1-8.69,2.48-.5,3.56-2.67,3.57-4.96.07-24.67.04-49.35.04-74.02-.29-.05-.58-.1-.87-.15Z" style="fill: #1d1ce6;"/>
    <path d="m278.11,265.94c-4.35,5.85-10.44,8.45-16.72,10.49-10.41,3.38-25-2.33-30.99-11.7-11.59-18.15-10.34-36.93-1.64-55.39,4.16-8.84,12.62-13.16,22.6-13.54,5.44-.21,10.83-.23,16.05,2.14,2.91,1.32,4.77,3.58,7.01,5.55.51.45.81,1.51,1.68,1.06.63-.33.83-1.11.83-1.95-.03-9.19-.06-18.38.01-27.58.01-1.45-.48-1.83-1.83-2.08-2.24-.42-4.38-1.46-6.63-1.73-2.4-.29-2.9-1.34-2.86-3.57.11-5.68,0-5.69,5.88-5.69,6.43,0,12.87.21,19.28-.08,3.55-.17,4.63.67,4.61,4.44-.17,31.23-.05,62.46-.17,93.68-.01,3.5.8,5.46,4.58,5.38.44,0,.87.48,1.34.59,5.83,1.34,5.94,1.55,5.37,7.41-.12,1.24-.39,1.64-1.71,1.77-7.68.78-15.35,1.47-23.08,1.5-1.89,0-2.75-.45-2.58-2.52.22-2.7-1.46-5.21-1.02-8.19Zm-36-32.52c0,4.21-.2,7.12.06,9.99.26,2.93.88,5.83,1.49,8.71,1.61,7.64,6.99,14.06,12.6,14.62,7.87.79,15.14-2.58,17.75-11.24,2.94-9.77,3.57-19.68,2.06-29.68-.65-4.32-1.56-8.73-3.72-12.67-3.72-6.77-9.9-8.3-16.92-7.53-5.47.6-8.88,3.82-10.82,8.98-2.47,6.55-2.62,13.31-2.49,18.81Z" style="fill: #1d1ce6;"/>
    <path d="m537.43,207.38c3.64-4.9,7.59-8.82,13.73-10.41,6.85-1.78,13.41-1.45,20.18.01,12.77,2.76,17.3,12.52,20.2,23.51,2.93,11.08,2.38,22.24-1.56,32.94-3.48,9.47-9.29,17.48-19.57,20.38-8.79,2.48-17.64,2.42-25.58-3.3-1.98-1.43-3.29-3.4-4.85-5.28-1.19.66-.55,1.78-.56,2.62-.07,5.54-.04,11.08-.04,16.61,0,6.09-.02,6.18,5.75,7.17,1.22.21,2.38.58,3.58.81,4.57.87,6.08,3.27,4.85,7.54-.41,1.43-1.42,1.21-2.36,1.21-13.1.02-26.21-.01-39.31.04-1.73,0-2.02-.7-2.1-2.24-.31-5.99-.32-5.81,5.4-7.3,7.03-1.83,5.82-.17,5.83-7.33.05-24.29-.03-48.58.09-72.88.01-2.73-.67-4.15-3.43-4.44-.84-.09-1.64-.52-2.48-.71-5.49-1.26-6.25-2.47-5.41-8.06.21-1.38.8-1.6,1.96-1.6,7.06.02,14.11.03,21.17,0,1.36,0,1.64.43,2.06,1.83.85,2.84.5,6.04,2.45,8.86Zm1.92,26.41c.03,4.73.06,9.45.76,14.16.8,5.43,3.07,10.69,7.06,13.76,8.67,6.68,19.92,5.14,23.65-6.6,4.18-13.15,4.12-26.6-.24-39.8-2.74-8.31-6.71-10.32-17.74-9.73-4.75.25-9.15,5.11-11.23,11.06-1.97,5.64-2.38,11.32-2.26,17.15Z" style="fill: #1d1ce6;"/>
    <path d="m447.2,265.31c0,7.89.04,15.18-.03,22.47-.02,2.07.34,3.19,2.86,3.28,2.79.11,5.55.96,8.33,1.45,2.83.5,2.11,2.68,2.4,4.56.52,3.42-.68,4.3-4.11,4.23-11.97-.23-23.94-.07-35.91-.11-1.31,0-3.61.7-3.03-1.87.52-2.3-2.2-5.72,2.18-6.82q8.98-2.26,8.98-11.56c0-23.03-.04-46.07.05-69.1.01-2.88-.28-4.84-3.8-4.82-1.29,0-2.6-1.03-3.88-1-3.83.1-3.67-2.17-3.75-5-.09-3.27.56-4.63,4.24-4.41,5.9.36,11.84.19,17.76.05,2.55-.06,3.97.29,3.95,3.39-.02,2.34.92,4.68,1.5,7.38,2.24-2.4,4.11-4.52,6.1-6.53,3.09-3.12,7.24-4.28,11.3-4.79,9.83-1.22,19.45-.38,27.55,6.12,3.54,2.84,5.41,7.02,7.19,11.21,3.73,8.78,4.22,17.97,3.64,27.25-.19,3.07-1.78,6.24-2.22,9.06-.67,4.26-2.32,7.76-4.36,11.14-5.41,8.95-13.26,13.97-24.03,14.27-6.19.18-11.88-.51-17.13-4.21-2.11-1.48-3.24-3.75-5.77-5.65Zm-.13-33.48c.08,6.23-.05,10.59.83,14.91,1.07,5.3,2.51,10.89,6.4,14.38,7.63,6.84,19.3,6.2,24.24-5.13,2.52-5.76,2.83-11.84,3.26-17.88.54-7.42-.87-14.7-2.94-21.83-2.04-7.02-5.55-9.89-11.32-10.67-8.5-1.16-13.47,1.5-16.77,8.05-3.2,6.36-4.16,13.05-3.7,18.16Z" style="fill: #1d1ce6;"/>
    <path d="m394.14,275.1c-6.3,0-12.6-.1-18.89.05-2.33.05-3.26-.4-3.18-3.01.16-5.52,0-5.52,5.63-6.85,5.11-1.2,5.78-2.45,4.1-7.38-1.71-5.01-3.53-9.99-4.95-15.08-.42-1.51-.94-1.71-2.19-1.71-10.71.02-21.42.06-32.12-.04-1.67-.02-1.95.71-2.35,2.03-1.89,6.19-3.7,12.43-6.01,18.47-.81,2.13.19,2.44,1.43,2.82,2.22.67,4.49,1.19,6.77,1.62,2.31.43,3.53,1.28,3.4,4.04-.25,5.04-.05,5.05-5.27,5.05-10.08,0-20.16-.05-30.23.04-2.21.02-3.34-.19-3.26-2.93.17-5.67-.02-5.73,5.91-6.91,3.76-.75,6.44-2.12,7.81-6.32,4.04-12.35,8.33-24.64,13.05-36.74,3.26-8.38,5.96-16.93,9.08-25.35,3.2-8.65,6.55-17.26,9.57-25.97.51-1.49,1.04-1.63,2.23-1.63,4.79.02,9.57.03,14.36,0,1.37-.01,2.06.21,2.6,1.83,3.12,9.37,6.45,18.68,9.79,27.98,3.25,9.03,6.91,17.93,9.82,27.07,2.86,8.95,6.77,17.51,9.17,26.62.9,3.42,2.54,6.65,3.99,9.85,1.21,2.69,4.97,2.14,7.5,3.3,1.32.61,3.67.35,4.03,1.67.57,2.11.34,4.51.05,6.74-.17,1.35-1.67.72-2.55.73-6.42.05-12.85.03-19.27.03Zm-21.34-44.56c-4.27-13.52-8.49-26.86-12.68-40.22-.19-.61-.24-1.41-1.03-1.19-.67.19-1.11.79-1.23,1.68-.49,3.49-1.96,6.68-3.14,9.97-3.24,9.09-6.48,18.18-9.63,27.3-.51,1.48-.19,2.52,1.92,2.5,8.54-.11,17.08-.04,25.8-.04Z" style="fill: #1d1ce6;"/>
    <path d="m766.48,211.22c3.25-3.73,6.02-7.56,10.03-10.27,2.48-1.68,5.18-2.67,7.91-3.69,9.54-3.57,18.25-2.11,26.11,4.37,3.95,3.25,4.13,8.21,5.69,12.54,1.97,5.5.78,11.27,1.26,16.89.84,9.87.39,19.87.17,29.8-.07,3.03.99,4.15,3.79,4.44,1.56.17,3.06.94,4.62,1.13,1.87.23,2.31,1.07,2.32,2.89.02,5.76.11,5.76-5.64,5.76-10.2,0-20.41.03-30.61-.04-1.22,0-3.43,1-3.1-1.75.31-2.59-1.52-6.04,2.61-7.25.58-.17,1.26,0,1.88-.06,4.7-.51,5.89-1.76,5.83-6.37-.14-11.31.65-22.66-.61-33.93-.56-5-.24-10.44-4.41-14.49-1.52-1.48-3.31-2.42-5.23-2.53-13.65-.78-20.34,5.6-21.54,18.72-1.02,11.18.03,22.53-.04,33.81-.02,2.93,1.05,3.99,3.83,4.1,4.89.19,7.49,4.56,5.53,9.01-.52,1.18-1.45.76-2.23.76-11.59.03-23.18-.01-34.77.06-1.76.01-2.32-.41-2.37-2.27-.17-6.04.1-6.68,6.82-7.45,3.7-.42,4.86-1.78,4.81-5.59-.23-16.23-.15-32.47-.04-48.7.02-2.59-.71-3.93-3.38-4.08-.96-.06-1.89-.49-2.84-.7-5.28-1.18-6.26-2.72-5.34-8.12.18-1.09.53-1.53,1.62-1.53,7.43.02,14.87.04,22.3-.01,1.58-.01,1.59.84,1.9,2.07,1.02,4.08,1.16,8.39,3.14,12.47Z" style="fill: #1d1ce6;"/>
    <path d="m641.97,276.56c-8.5.61-16.46-1.1-23.36-6.35-8.21-6.25-11.82-15.1-13.33-24.92-1.27-8.28-1.23-16.59,1.15-24.7,5.22-17.75,16.76-25.65,36.62-25.23,5.37.11,10.68.83,15.76,2.54,10.64,3.58,16.19,11.93,18.84,22.09,2.94,11.27,2.92,22.78-.67,34.02-3.1,9.72-9.09,16.81-18.98,20.38-5.22,1.89-10.52,2.46-16.03,2.18Zm-17.63-41.02c.44,5.26.2,10.65,1.24,15.98,2.1,10.76,7.23,16.28,18.52,15.19,6.62-.64,11.45-3.4,13.41-10.63,3.33-12.29,3.24-24.51.97-36.86-.63-3.43-1.55-6.75-3.91-9.53-3.84-4.54-9-4.04-14.18-4.19-6.23-.18-10.05,2.72-12.7,8.04-3.48,6.98-2.67,14.53-3.35,21.99Z" style="fill: #1d1ce6;"/>
    <path d="m185.78,238.02c-7.56,0-15.13,0-22.69,0-1.31,0-2.92-.45-2.69,1.89.75,7.47,1.77,14.88,7.58,20.39,5.74,5.45,12.63,5.05,19.6,3.12,5.67-1.58,10.63-4.43,14.39-9.06.98-1.2,1.75-1.13,2.72-.17.09.09.19.17.29.24,6.77,5.46,7.41,4.07.78,10.43-7.89,7.57-17.33,11.5-28.42,11.83-8.53.25-16.65-1.17-23.23-6.5-6.68-5.42-10.88-12.81-11.76-21.62-.71-7.15-.76-14.33,0-21.48,1.41-13.12,10.19-27.69,25.88-30.68,6.44-1.23,12.91.33,19.25-1.09,7.59,4.3,16.21,7.3,20.21,16.09,3.51,7.73,4.54,15.85,4.01,24.27-.13,2.09-1.08,2.39-2.88,2.38-7.69-.08-15.38-.03-23.07-.03Zm-8.85-9.27c4.15,0,8.32-.24,12.45.08,3.21.24,3.97-1.09,3.53-3.83-.44-2.76-.85-5.54-1.42-8.27-1.32-6.32-5.33-10.1-11.69-11.14-6.18-1.02-11.56,1.42-14.72,6.7-2.45,4.1-3.55,8.55-3.95,13.3-.25,2.9.87,3.32,3.35,3.21,4.14-.18,8.3-.05,12.45-.05Z" style="fill: #1d1ce6;"/>
    <path d="m1044.95,334.58c-3.26,1.48-6.52,2.97-9.79,4.44-9.73,4.4-19.43,8.87-29.23,13.12-2.32,1.01-3.31,2.11-2.98,4.72.18,1.5,1,3.5-1.36,4.58-1.77.8-2.83,1.04-3.77-1.13-2.49-5.73-5.18-11.39-7.87-17.03-.38-.79-.78-1.49.19-1.78,1.55-.46,2.91-2.28,4.8-.88.3.22.49.57.74.85,3.95,4.43,3.9,4.34,9.37,1.75,6.47-3.07,13.03-5.98,19.56-8.93,6.13-2.77,12.24-5.58,18.42-8.23,3.28-1.41,1.59-3.68,1.14-5.65-.61-2.64-.15-4.29,2.93-4.51,1.35-.1,2.06.34,2.6,1.54,2.65,5.97,5.24,11.97,8.1,17.83,1.09,2.25-.42,2.93-1.61,3.93-13.58,11.43-27.17,22.85-40.77,34.27.57,1.3,1.59.64,2.28.55,10.52-1.32,21.02-2.71,31.53-4.09,6.66-.88,13.32-1.74,19.97-2.67,2.16-.3,3.35.41,4.24,2.52,2.33,5.55,4.93,10.99,7.44,16.46.61,1.32,1.35,2.61-.85,3.11-1.41.32-2.88,2.64-4.21-.26-.51-1.11-1.62-1.93-2.27-3-.86-1.42-1.79-1.29-3.12-.68-14.05,6.4-28.1,12.81-42.22,19.07-3.31,1.46-1.45,4.01-1.35,5.82.12,2.1.48,2.99-2.02,4.05-3.06,1.31-3.04-1.08-3.59-2.23-2.26-4.7-4.22-9.54-6.33-14.32-.51-1.14-1.1-2.26-1.76-3.32-.73-1.17-1.9-2.45-.14-3.43,1.48-.83,3.68-2.37,4.89-.19,2.71,4.88,5.82,2.93,9.34,1.3,12.18-5.64,24.43-11.12,36.51-17.44-4.29.55-8.59,1.04-12.86,1.67-7.96,1.18-15.9,2.44-23.85,3.67-5.72.88-11.49,1.55-17.13,2.77-1.87.4-2.18-.33-2.67-1.47-1.24-2.87-2.31-5.82-3.71-8.6-1.08-2.15.67-2.68,1.7-3.54,11.86-9.96,23.77-19.87,35.63-29.84,1.56-1.31,3.42-2.37,4.12-4.84Z" style="fill: #cfcfe5;"/>
    <path d="m1009.72,137.73c7.4,6.54,14.82,13.04,22.79,18.91,3.75,2.76,7.13,6.06,10.49,9.3,1.76,1.69,3.97,2.66,5.69,4.54,1.61,1.76,1.98,2.87.8,4.71-.2.31-.28.69-.43,1.04-3.65,8.36-3.96,8.79-12.76,6.55-6.38-1.62-12.91-1.65-19.31-2.86-7.1-1.34-14.23-2.51-21.36-3.72-1.18-.2-2.39-.35-4.08.37,5.95,1.96,11.28,4.4,16.47,6.83,6.75,3.16,13.76,5.88,20.29,9.49,3.23,1.79,5.62,1.53,7.63-1.31,1.3-1.85,3-1.37,4.34-.85,1.38.53,2.68,1.77,1.29,3.68-2.66,3.65-4.34,7.72-5.49,12.11-.48,1.82-1.91,3.47-3.15,5-1.78,2.21-2.59-.76-3.93-1.07-.94-.22-2-1.65-1.18-3.2,2.32-4.4,1.92-4.7-2.67-6.34-3.68-1.31-6.99-3.58-10.65-5.13-8.81-3.73-17.51-7.71-26.13-11.84-2.61-1.25-4-.76-5.54,1.46-.86,1.24-1.36,3.52-3.94,2.43-1.92-.81-3.2-1.34-1.93-3.94,2.63-5.39,4.85-10.98,7.27-16.48,1.03-2.34,1.96-3.95,5.11-1.89,1.49.97,4.22,1,6.12,1.2,10.99,1.14,21.76,3.74,32.81,4.53,3.7.27,7.53,1.42,12.46,1.94-6.66-5.75-12.53-10.82-18.41-15.88-4.46-3.85-8.94-7.67-13.39-11.53-3-2.6-5.86-5.38-8.98-7.83-1.59-1.26-3.39-1.05-1.03-4.12,3.05-3.97,4.46-9.26,6.34-14.07,1.42-3.63,2.8-4.54,5.16-2.7,1.78,1.39,1.32,3.55.65,5.02-1.07,2.33-.11,3.07,1.74,3.87,8.19,3.55,16.14,7.86,24.62,10.41,3.5,1.05,6.02,4.71,10.35,3.78.85-.18,2.31,2.05,3.82,2.93,3.05,1.77,5.1,1.34,6.65-1.74,1.29-2.56,3.08-2.51,5.16-1.01,1.13.82,1.68,1.97.86,3.12-3.93,5.5-5.2,12.25-8.6,17.99-.76,1.29-1.14,2.39-3.03,1.41-1.67-.87-3.52-1.66-2.52-3.77,1.65-3.49-.19-4.51-2.97-5.71-12.35-5.33-24.63-10.84-36.93-16.28-.57-.34-1.14-.47-1.7.04.4.2.8.4,1.2.6Z" style="fill: #cfcfe5;"/>
    <path d="m864.59,234.46c0,8.18-.03,16.35.01,24.53.03,5.1.98,6.01,6.17,6.14,2.39.06,4.79-.02,7.18.03,1.12.03,2.85-.54,2.52,1.61-.28,1.8,1.28,4.54-1.49,5.21-7.7,1.86-15.16,4.76-23.32,4.73-4.79-.02-10.07-3.4-9.87-10.16.34-11.37,0-22.74.15-34.11.1-7.55-.1-15.1.08-22.64.06-2.66-.38-3.9-3.41-3.58-2.99.31-6.04,0-9.06.09-1.5.04-2.75-.31-2.15-1.99.65-1.82-2.03-4.68,1.58-5.51,2.74-.63,5.6-1.67,8.29-1.39,4.8.5,5.19-2.86,5.1-5.67-.11-3.66,1.42-7.1.87-10.74-.18-1.22.15-2.39,1.55-2.58,4.4-.58,8.81-1.02,13.21-1.57,1.97-.24,2.61.47,2.55,2.49-.14,4.9.06,9.81-.09,14.71-.07,2.19.67,2.76,2.76,2.69,4.4-.15,8.81.03,13.22-.08,1.81-.05,2.3.53,2.38,2.34.31,7.28.38,7.28-6.8,7.28-3.02,0-6.05.13-9.06-.04-2.05-.12-2.51.62-2.49,2.55.1,8.55.04,17.11.04,25.66.03,0,.05,0,.08,0Z" style="fill: #1d1ce6;"/>
    <path d="m1500,266.02c.04,16.59-10.33,27.08-25.95,26.98-14.93-.09-25.22-11.41-25.44-27.16-.19-13.09,12.6-25.28,25.84-24.55,15.05.82,25.81,10.39,25.56,24.73Z" style="fill: #cfcfe5;"/>
    <path d="m976.62,266.61c.06-14.34,11.28-25.22,25.61-25.22,15.5,0,24.41,10.56,25.81,22.21.92,7.68-.72,14.62-5.93,20.51-5.22,5.91-11.98,9.26-19.7,9-13.1-.45-25.58-9.42-25.8-26.49Z" style="fill: #cfcfe5;"/>
    <path d="m719.44,230.91c0,10.07.12,20.14-.08,30.2-.05,2.76,1.1,3.72,3.45,4.17,1.67.32,3.29,1.03,4.97,1.18,2.02.18,2.23,1.22,2.24,2.92.03,5.72.1,5.72-5.67,5.72-10.46,0-20.91.03-31.37-.05-1.08,0-3.4,1-2.98-1.39.42-2.41-2.31-5.88,2.04-7.18.12-.03.21-.16.32-.19,2.81-.78,6.64-.7,8.18-2.54,1.82-2.17.53-6.03.55-9.16.06-14.47-.09-28.95.13-43.42.04-2.79-1.21-3.63-3.3-4.19-2-.54-4.01-1.07-6.05-1.37-1.42-.21-1.83-.88-1.99-2.19-.79-6.36-.5-6.73,5.87-6.73,6.8,0,13.61.12,20.41-.06,2.62-.07,3.41.62,3.36,3.31-.16,10.32-.07,20.64-.07,30.96Z" style="fill: #1d1ce6;"/>
    <path d="m1132.62,457.68c3.42-5.5,6.42-10.36,9.45-15.2,1.17-1.86,1.15-3.41-.82-4.76-2-1.37-2.96-3.19-1.03-5.26,1.98-2.13,3.17.22,4.58,1.08,3.42,2.07,6.72,4.37,10.27,6.18,1.84.94,1.19,2.02.6,2.86-7.65,10.88-14.33,22.37-21.43,33.59-3.4,5.38-6.66,10.85-10.15,16.16-1.75,2.66.49,3.69,1.84,4.81,2.02,1.67,1.96,3.06.45,4.99-.91,1.16-1.54,1.25-2.77.53-3.57-2.11-7.18-4.18-10.88-6.05-1.64-.83-1.98-2.12-1.37-3.37,1.98-4.06-1.35-2.76-2.85-2.78-9.53-.09-16.63-5.06-19.4-14.23-1.96-6.5.4-12.59,3.4-18.13,2.63-4.86,5.93-9.3,10.7-12.74,6.96-5.02,18.39-4.26,24.38,1.41,2.95,2.79,4.57,6.12,5.04,10.9Zm-4.73,3.41c.12-5.67-1.66-8.54-5.12-10.24-3.45-1.69-6.94-2.19-10.07.77-6.42,6.09-11.02,13.36-13.39,21.88-1.06,3.8.26,7.16,3.42,9.72,3.09,2.5,6.65,2.92,9.77.86,8.84-5.84,13.58-14.45,15.4-23Z" style="fill: #cfcfe5;"/>
    <path d="m1295.41,478.22c2.81-12.41,23.92-16.99,32.24-5.38,6.34,8.85,8.63,18.41,6.4,28.82-2.38,11.14-15.12,16.19-27.03,10.87,1.35,4.62,2.57,9,3.93,13.35.69,2.19,2.3,1.44,3.97,1.22,2.26-.29,5.11-1.97,6.28,2.03.5,1.7.09,2.27-1.35,2.71-7.43,2.29-14.84,4.62-22.28,6.87-1.48.45-2.39-.25-2.55-1.85-.12-1.23-1.74-2.3.73-3.49,4.87-2.34,4.68-2.59,3.07-7.91-4.14-13.62-8.32-27.22-12.23-40.9-.84-2.92-2.67-2.26-4.57-2.45-1.65-.16-3.65.91-4.48-2-.71-2.49.02-3.41,2.18-3.97,1.82-.47,3.63-.98,5.44-1.49q6.34-1.77,10.28,3.57Zm28.48,20.82c.57-2.1-.57-4.35-.92-6.64-.92-6.02-3.27-11.58-7.25-16.28-2.39-2.82-5.35-3.58-9.12-2.48-3.63,1.06-6.43,3.13-6.84,6.59-1.18,9.72,1.81,18.48,7.9,26.08,1.99,2.49,4.99,4.17,8.18,3.52,5.84-1.19,7.99-4.33,8.05-10.78Z" style="fill: #cfcfe5;"/>
    <path d="m1157.48,506.87c1.28.78,2.48,1.73,3.84,2.3,2.27.94,2.45,2.42,1.84,4.52-.73,2.52-2.26,1.35-3.79,1.15-6.05-.76-11.63-3.26-17.52-4.61-.97-.22-2.32-.32-1.76-1.74.5-1.27-.11-3.2,1.88-3.72.24-.06.52-.1.75-.04,5.49,1.47,7.74-2.28,10.15-6.08,6.93-10.96,14.83-21.27,21.78-32.23,2.45-3.87,5.34-7.57,8.02-11.35.94-1.33,1.77-1.81,3.42-1.21,2.2.8,4.52,1.29,6.81,1.81,1.02.23,1.45.71,1.53,1.76.46,5.57.97,11.13,1.51,16.69.68,7.04,1.57,14.06,2.08,21.11.45,6.21,1.15,12.41,1.49,18.61.19,3.41,1.22,5.25,4.23,6.28,2.9,1,2.93,2.71,1.62,5.19-.79,1.5-1.83,1.81-2.98,1.21-5.05-2.64-10.77-2.7-16.06-4.34-1.88-.58-3.77-1.13-5.6-1.85-.73-.29-2.41,0-1.74-1.69.49-1.24-.11-3.15,2.27-3.31,1.85-.12,4.38,1.18,5.42-.9.76-1.52-.04-3.73.24-5.58.41-2.69-.91-5.12-.8-7.73.05-1.17-.87-1.34-1.75-1.57-5.32-1.41-10.77-2.29-16.04-3.97-2.15-.68-4.12.56-5.36,2.52-1.82,2.85-3.58,5.74-5.46,8.77Zm26.58-40.61c-4.66,7.09-9.18,13.99-13.73,20.86-.9,1.36-.91,2.17.94,2.57,4.1.9,8.18,1.9,12.26,2.89,1.92.47,2.95-.06,2.54-2.2-1.49-7.84-.08-15.88-2-24.13Z" style="fill: #cfcfe5;"/>
    <path d="m1111.04,45.91c-2.87-4.54-5.58-8.86-8.33-13.15-1.36-2.13-3.15-3.07-5.54-1.6-2.18,1.34-3.33.37-4.47-1.55-1.52-2.55.93-2.72,2.01-3.47,2.93-2.05,6.14-3.72,9-5.86,2.25-1.68,3.29-1.5,4.85.98,9.72,15.49,19.88,30.69,29.17,46.45,1.23,2.09,2.69,3.08,4.84,1.75,1.1-.68,2.13-.57,3.23-.64,1.31-.08,1.44,1.01,1.99,1.84.81,1.24-.18,1.6-.75,2.02-3.52,2.6-7.04,5.2-10.67,7.64-1.77,1.18-1.95-1.12-2.88-1.75-.67-.45-.91-1.66-2-1.36-1,.28-.44,1.26-.57,1.92-1.93,9.69-14.46,14.96-21.41,13.8-1.56-.26-3.07-1.32-4.43-2.26-8.54-5.82-14.62-13.46-16.24-23.87-1.85-11.94,4.51-18.35,15.1-21.32,2.26-.63,4.33,1.22,7.11.44Zm-3.54,4.67c-5.6-.03-11.2,5.38-9.79,9.81,2.85,8.98,7.55,16.91,15.26,22.76,3.38,2.56,6.6,1.5,9.62-.43,3.13-2.01,4.56-5.1,3.76-8.79-1.84-8.49-6.24-15.48-12.93-21.01-1.79-1.48-3.83-2.4-5.92-2.34Z" style="fill: #cfcfe5;"/>
    <path d="m1236.22,49.15c0,3.45.2,6.94-.06,10.39-.24,3.11.68,4.52,3.94,4.05.83-.12,1.82-.03,2.56.33,1.96.95,1.85,2.83,1.64,4.59-.25,2.09-1.97,1.1-2.99,1.11-6.68.06-13.35-.02-20.03-.04-1.68,0-3.25.16-3.48-2.31-.21-2.27.6-3.06,2.77-3.23,3.24-.25,4.04-1.97,4.24-5.36.81-13.67.5-27.35,1.27-41.01.2-3.54-.98-5.32-4.26-5.36-3.12-.04-2.37-2.01-2.47-3.76-.13-2.45,1.67-1.67,2.87-1.7,2.27-.07,4.54.1,6.8,0,3.04-.13,5.99-.37,6.21,3.95.1,1.99,1.36,1.66,2.19.63,4.61-5.72,11.03-4.79,17.1-4.5,3.71.18,6.97,2.03,9.36,5.07,7.57,9.61,6.79,26.57-.08,35.31-6.56,8.34-16.7,9.45-25.52,2.98-.57-.42-.85-1.28-2.08-1.18Zm20.88-19.25c.48-3.21-.14-6.41-.76-9.6-.98-5.06-3.67-7.46-8.88-8.03-3.69-.4-6.61,1.62-8.73,5.77-2.82,5.53-1.84,11.43-1.89,17.24-.03,3.46,1.19,6.56,3.19,9.31,2.14,2.95,5.16,4.48,8.8,3.75,3.57-.72,5.94-3.05,6.82-6.67.94-3.84,1.97-7.67,1.44-11.76Z" style="fill: #cfcfe5;"/>
    <path d="m1295.55,56.07c-1.54,4.76-3.17,8.87-4.12,13.12-.42,1.89,2.22,1.91,3.49,2.72,1.86,1.19,4.54,1.58,3.19,4.97-.61,1.53-1.34,2.08-2.76,1.58-6.72-2.38-13.55-4.35-20.45-6.14-1.34-.35-3.27-.96-2.33-3.36.76-1.92,1.41-3.03,3.88-1.91,2.08.94,2.5.15,3.71-2.29,5.85-11.83,8.06-24.82,12.05-37.24.41-1.28.93-2.53,1.44-3.77,1.16-2.79,1.1-5.16-2.2-6.41-2.06-.78-2.31-2.09-1.69-4.14.83-2.71,2.71-1.11,3.79-.9,3.01.57,5.89,1.82,8.89,2.52,2.31.54,2.87,1.74,2.09,3.76-.32.84-.87,1.75-.08,2.4.76.62,1.6-.05,2.4-.45,7.83-3.89,18.87-1.05,23.19,5.06,2.88,4.07,3.76,8.79,3.36,13.41-.71,8.15-3.28,15.51-9.33,21.8-7.63,7.95-22.83,6.19-27.34-3.22-.15-.32-.44-.58-1.2-1.53Zm17.45-31.83c-3.46-.78-5.77,1.31-7.76,4.19-3.75,5.44-5.6,11.61-6.37,18.02-.79,6.55,2.25,10.94,8.23,12.94,3.1,1.04,7.58-1.87,10.35-7.05,3.23-6.02,4.83-12.53,4.82-19.36,0-5.86-3.01-8.71-9.26-8.75Z" style="fill: #cfcfe5;"/>
    <path d="m1165.61,53.08c-.03.5-.05,1.01-.08,1.51-.29,5.07-.3,5.24,4.95,5.33,2.71.05,2.45,1.9,2.97,3.49.7,2.13-1.16,1.91-2.12,2.19-5.61,1.62-11.26,3.14-16.91,4.64-1.5.4-2.99.53-3.57-1.49-.45-1.55-.7-3.18,1.24-3.69,4.68-1.22,4.9-5.07,5.2-8.69.66-7.93.95-15.9,1.61-23.84.55-6.67,1.41-13.31,2.11-19.97.14-1.37.18-2.76.21-4.14.05-1.98-.99-5.02.37-5.71,3.02-1.53,6.6-2.06,10.01-2.68,1.41-.25,1.85,1.49,2.53,2.47,10.01,14.45,20.04,28.88,29.94,43.4,1.55,2.27,3.04,3.85,6.02,3.24,2.35-.48,3.75.5,4.1,2.96.4,2.76-1.87,2.52-3.35,2.93-6.36,1.77-12.75,3.39-19.12,5.11-1.24.33-2.72.92-3.11-.77-.35-1.51-1.33-3.52,1.14-4.48.69-.27,1.28-.83,1.98-1.09,2.23-.82,2.53-1.97,1.07-3.91-1.73-2.31-3.3-4.75-4.76-7.24-.98-1.67-2.09-2.16-3.99-1.61-5.33,1.54-10.71,2.94-16.08,4.36-1.67.44-2.56,1.23-2.28,3.16.21,1.48.04,3.01.04,4.52-.03,0-.06,0-.09,0Zm2.42-39.98c-.61,9.12-1.17,17.44-1.76,26.13,4.96-1.29,9.49-2.55,14.07-3.63,2.19-.52,2.21-1.39,1.09-3.06-3-4.5-5.85-9.1-8.82-13.62-1.2-1.82-2.06-3.93-4.58-5.82Z" style="fill: #cfcfe5;"/>
    <path d="m1418.55,393.42c-2.39-5.89-2.92-11.75.16-17.37,5.28-9.65,10.49-10.55,20.22-6.19,7.81,3.5,14.72,8.7,21.84,13.42,2.3,1.53,3.6,1.34,5.36-.58.85-.93,1.51-2.96,3.51-1.98,2.08,1.02,3.95,1.82,1.73,4.84-3.64,4.95-6.76,10.28-10.11,15.44-.81,1.25-1.49,2.79-3.35,1.1-1.1-.99-3.68-.89-1.9-3.63,1.88-2.88.69-4.78-2.33-6.34-6.85-3.53-12.59-8.95-19.9-11.73-3.17-1.21-6.19-2.1-8.96.88-3.16,3.42-3.63,7.3-2,11.47,1.18,3.02,3.45,5.2,6.12,6.99,4.94,3.3,9.89,6.57,14.78,9.95,1.7,1.18,3.02,1.78,4.69-.19.85-1.01,2.28-2.08,3.76-1.83,2.65.46,3.18,2.25,1.62,4.64-3.42,5.23-6.99,10.37-10.16,15.75-1.06,1.79-1.99,1.56-3.26.94-1.24-.61-2.94-1.07-1.68-3.17,2.14-3.58.78-5.87-2.59-7.93-7.91-4.85-15.67-9.94-23.4-15.07-1.63-1.08-2.43-.37-3.5.62-1.16,1.07-2.15,2.73-3.76,2.84-2.47.16-3.69-2.58-2.3-4.77,1.21-1.91,2.44-3.81,3.67-5.71q3.4-5.28,9.16-2.49c.74.36,1.38.49,2.58.1Z" style="fill: #cfcfe5;"/>
    <path d="m1444.31,124.44c7.04.68,12.35,3.21,16.44,8.27,4.3,5.32,4.11,11.47-.62,16.39-6.25,6.5-14.28,10.5-21.64,15.43-4.48,3-4.97,3.4-2.49,7.8,2.03,3.61-2.55,2.01-2.87,4.09-.17,1.12-1.33-.44-1.82-1.22-3.49-5.59-7-11.18-10.51-16.75-.61-.97-1.46-1.96.21-2.66,1.2-.5,2.3-2.68,3.78-.68,2.82,3.8,5.33,1.91,8.14-.04,4.33-3.01,8.9-5.68,13.21-8.72,2.9-2.05,6.56-3.71,6.94-7.89.6-6.51-6.46-11.85-12.89-9.44-7.89,2.95-14.9,7.6-21.64,12.6-1.62,1.2.11,2.56.33,3.85.23,1.34,1.39,2.68-1.05,3.76-2.23.99-3.04,0-3.96-1.37-3.05-4.51-6.07-9.05-9-13.63-.94-1.47-1.86-3.2.2-4.57,1.76-1.17,3.53-.85,4.56.93,1.58,2.72,3.22,1.5,4.95.39,7.94-5.09,15.82-10.28,23.85-15.22,2.12-1.3,2.06-2.49.99-4.25-1.05-1.75-1.94-3.53.59-4.84,1.38-.72,2.51-1.14,3.6.78,1.7,2.98,3.74,5.78,5.79,8.55,1.05,1.43.86,2.34-.4,3.48-1.48,1.34-2.75,2.9-4.69,4.98Z" style="fill: #cfcfe5;"/>
    <path d="m1341.23,462.64c.06-5.91,2.68-10.59,7.05-14.45,4.53-4,9.46-7.02,15.68-7.68,8.32-.88,14.15,3.2,19.11,9.12,6.28,7.49,9.52,15.87,7.31,25.79-.4,1.77-1.19,3.34-2.32,4.68-3.61,4.29-7.9,7.72-13.12,9.91-9.14,3.83-17.51,2.16-23.95-5.32-4.57-5.31-7.88-11.46-9.71-18.29-.31-1.17-.04-2.5-.04-3.75Zm40.23,11.68c-2.31-10.27-7.13-19.13-15.89-25.34-3.55-2.51-7.27-.66-10.45,1.66-2.92,2.13-5.11,5.18-3.99,8.67,2.86,8.93,7.48,16.9,14.7,23.19,3.22,2.8,6.46,2.12,9.69.37,3.3-1.78,6.25-3.95,5.94-8.55Z" style="fill: #cfcfe5;"/>
    <path d="m1043.11,432.63c-.88-6.71,3.67-11.38,7.7-15.58,3.88-4.04,8.24-8.03,14.48-9.12,12.19-2.13,18.87.46,25.13,11.12,5.27,8.98,3.62,16.95-4.58,24.9-3.88,3.76-5.29,3.74-8.57-.8-4.05-5.61-9.51-9.86-13.74-15.29-2.78-3.58-3.8-3.31-6.59.23-6.92,8.75-3.22,18.71,7.99,21.55,1.07.27,2.22.88,3.21.69,4.28-.82,3.25,2.97,3.39,4.53.21,2.36-2.34,1.36-3.79,1.58-10.27,1.54-26.45-13.08-24.62-23.81Zm32.62-16.99c-3.49-.44-6.25,1.6-9.12,3.44-1.51.97-1.75,1.73-.38,3.12,2.92,2.96,5.68,6.07,8.48,9.13q3.85,4.22,7.34-.24c.39-.49.78-.99,1.09-1.53,3.82-6.58.02-13.91-7.41-13.93Z" style="fill: #cfcfe5;"/>
    <path d="m1341.11,72.12c.64-12.08,8.74-26.37,21.02-29.24,3.56-.83,6.63.1,9.77,1.06,6.17,1.88,11.51,5.29,15,10.72,4.41,6.86,2.96,14.15-.24,20.97-3.92,8.35-9.72,14.74-19.4,16.85-3.16.69-5.71.43-8.44-.98-5.48-2.83-10.85-5.75-14.62-10.91-2.03-2.78-3.46-5.66-3.09-8.48Zm38.55-12.9c.47-1.48.15-3.19-1.07-4.61-3.49-4.04-10.17-7.14-15.56-1.37-4.78,5.12-8.35,10.97-11.1,17.37-2.19,5.1-1.13,9.16,3.21,12.17,4.56,3.15,8.92,2.86,12.88-1.13,4.57-4.6,7.93-10.06,10.48-15.98.81-1.88,1.6-3.91,1.16-6.45Z" style="fill: #cfcfe5;"/>
    <path d="m1061.44,112.36c2.56,3.21,6.13,4.95,9.96,6.14,3.52,1.09,9.04-1.95,11.09-5.95,1.65-3.23,2.68-6.67,2.22-10.35-.43-3.43,2.43-2.37,3.99-3.02,2.18-.9,2.21,1.01,2.39,2.19.88,5.87-.39,11.35-3.69,16.25-4.59,6.84-10.54,11.49-19.37,10.86-3.82-.27-7.31-1.89-10.28-4.01-6.5-4.63-11.42-10.75-14.45-18.18-2.29-5.61,2.11-16.84,7.92-20.82,1.83-1.26,3.56-2.86,5.59-3.61,6.96-2.59,13.47-1.41,19.37,3.1.8.61,1.41,1.48,2.25,2,3,1.85,3.11,3.55.57,6.19-6.01,6.25-11.72,12.79-17.56,19.22Zm-10.15-14.01c.11,3.43,2.5,6.49,5.13,9.41,1.16,1.28,1.75-.05,2.34-.68,2.91-3.13,5.59-6.48,8.68-9.41,2.6-2.47,2.45-4.18-.54-5.89-.54-.31-1.03-.73-1.57-1.03-6.61-3.66-14-.05-14.02,7.6Z" style="fill: #cfcfe5;"/>
    <path d="m1486.47,343.72c-.36,3.05-.53,6.04-1.09,8.96-1.17,6.1-4.33,7.86-10.42,5.82-9.94-3.33-19.91-6.61-29.72-10.3-3.32-1.25-4.82-1.23-5.32,2.64-.16,1.24-.18,3.17-2.07,3.65-2.07.53-4.08-1.55-3.64-3.72,1.29-6.38,1.35-6.53-5.03-9.22-2.98-1.26-3.97-2.83-3.02-5.97,1.57-5.17,1.46-5.2,6.89-3.81,7.09,1.82,7.14,1.83,9.03-5.36.55-2.09.92-3.6,3.8-2.66,2.64.87,2.66,2.18,1.92,4.36-2.66,7.82-2.6,7.8,5.23,10.42,7.53,2.52,15.01,5.17,22.54,7.68,4.13,1.38,4.61,1,5.61-3.67.8-3.74,2.21-4.76,4.39-3.2,1.7,1.22.31,3.01.9,4.37Z" style="fill: #cfcfe5;"/>
    <path d="m1445.83,209.08c-.7-.03-.97-.94-1.45-1.6-2.81-3.81-4.72-8.12-6.69-12.39-1.16-2.52.68-5.68,3.91-6.78,8.16-2.78,16.33-5.53,24.49-8.29,1.88-.63,3.77-1.2,5.65-1.85,4.45-1.53,4.43-1.54,2.55-5.88-.47-1.1-.83-2.24-1.24-3.37,1.3-.45,1.66-3.77,3.99-1.25.36.39.97.62,1.36,1.13,1.46,1.87,1.22,5.39,4.1,5.65,2.32.22,4.9-.61,7.12-1.56,1.94-.83,2.75-.3,3.44,1.32.05.12.09.24.15.35q3.47,6.42-3.18,8.93c-4.91,1.85-5.09,2.28-3.16,7.22.23.58.48,1.15.69,1.73.41,1.15.79,2.32,1.18,3.48-1.65.46-3.28.97-4.95,1.35-.67.15-1.02-.29-1.22-1.04-.28-1.05-.89-2.01-1.29-3.04-2.21-5.67-2.23-5.76-7.8-3.93-7.98,2.62-15.92,5.36-23.85,8.11-2.46.85-2.53,3-2.23,5.08.15,1.05.61,2.12,1.17,3.04,1.8,2.98-.94,2.81-2.74,3.57Z" style="fill: #cfcfe5;"/>
    <path d="m1388.18,427.54c-.87.52-1.95.97-2.78,1.69-2.32,2-3.85.89-5.55-.97-1.16-1.27-.67-2.04.36-2.7,3.85-2.46,6.72-5.99,9.92-9.14,1.81-1.78,2.86-1.63,4.55.11,7.97,8.21,16.2,16.18,24.04,24.52,2.39,2.54,4.25,3.1,6.82.87,1.91-1.65,3.07-.96,4.52.82,1.11,1.36.89,1.97-.2,3-5,4.77-9.92,9.61-14.92,14.37-.69.66-1.6,2.44-2.59,1.02-.81-1.16-3.34-2.34-1.59-4.29,3.5-3.9,1.49-6.47-1.54-9.35-6.29-5.96-12.36-12.16-18.53-18.25-.7-.69-1.25-1.6-2.52-1.71Z" style="fill: #cfcfe5;"/>
    <path d="m1412.84,82.04c-.81-1.29-1.46-2.69-2.45-3.8-1.2-1.36-1.16-2.36.27-3.38,1.27-.9,2.29-2.05,3.96-.17,2.75,3.09,5.75,5.99,8.85,8.73,1.83,1.62,1.53,2.52-.05,4.12-8.14,8.19-16.1,16.57-24.26,24.75-1.58,1.59-2.07,2.77-.46,4.48.51.54.9,1.22,1.21,1.9.87,1.91-.36,3.09-1.63,4.16-1.43,1.2-1.99-.39-2.69-1.03-4.79-4.39-9.55-8.82-14.26-13.31-.76-.72-2.52-1.39-.92-2.92,1.22-1.16,2.41-3.21,4.35-1.56,4.04,3.44,5.89,1.24,8.71-2.04,5.13-5.98,11.11-11.23,16.74-16.78.97-.96,2.14-1.76,2.63-3.15Z" style="fill: #cfcfe5;"/>
    <path d="m850.18,349.91c6.26-4.55,8.79-5.01,13.63.21,1.12,1.21,1.51.29,1.98-.29,2.96-3.63,7.11-2.69,10.42-1.75,3.56,1.01,3.74,4.9,3.63,8.32-.08,2.39,0,4.78,0,7.17,0,1.15.43,2.18.79,3.26.4,1.21,2.88,1.05,2.05,2.62-.84,1.58-2.71.47-4.11.6-1.87.18-3.77.1-5.66.12-.6,0-1.31.19-1.59-.6-.23-.66-.1-1.37.56-1.6,3.28-1.14,2.5-3.88,2.54-6.28.04-2.26,0-4.53,0-6.79,0-1.94-.69-3.52-2.64-4.09-2.16-.63-3.97.12-5.25,1.99-1.69,2.48-2.05,5.23-1.98,8.19.07,2.94-.21,5.86,3.3,7.13.6.22.63.74.57,1.22-.1.83-.78.83-1.41.83-3.02,0-6.04,0-9.06-.01-.57,0-1.31.25-1.55-.59-.24-.83.07-1.71.78-1.91,3.01-.84,2.65-3.26,2.69-5.46.05-2.51.1-5.04-.14-7.54-.19-1.86-.66-3.77-3.18-4-2.37-.22-4.14.43-5.28,2.67-1.33,2.61-1.06,5.39-1.02,8.14.04,2.64-.75,5.75,3.04,6.81.22.06.38.87.32,1.3-.09.64-.74.58-1.21.59-3.27.02-6.54.01-9.82,0-.46,0-1.04.07-1.19-.6-.15-.69.07-1.16.74-1.51,1.6-.83,2.9-1.81,2.81-3.96-.16-4.09.42-8.22-.72-12.23-.21-.75-1.11-.29-1.65-.5-.9-.34-1.73-1.19-1.05-1.96,1.77-1.96,4.53-1.71,6.84-2.31,2.03-.52.45,2.06,1.79,2.83Z" style="fill: #cfcfe5;"/>
    <path d="m545.62,351.69c7.11,2.68,8.38,4.05,8.27,8.84-.11,4.82-2.82,8.01-7.98,9.01-5.6,1.08-11.3.36-16.95.64-.58.03-1.35.11-1.47-.75-.1-.71-.28-1.56.72-1.85,2.78-.8,2.74-3.28,2.8-5.33.18-6.16.12-12.32.04-18.48-.03-1.98-.29-4.05-2.9-4.45-1.12-.17-.82-1.03-.89-1.72-.09-.98.44-1.36,1.34-1.28,5.49.45,11-.6,16.51.6,3.29.72,5.71,1.87,6.3,5.37.58,3.45-1.28,6.75-4.58,8.49-.42.22-.76.57-1.23.92Zm2.08,9.04c-.11-4.36-6.35-8.58-10.27-6.98-.74.3-.87.81-.86,1.45.05,3.13-.02,6.27.23,9.38.21,2.61,2.18,3.56,4.51,3.4,3.84-.26,6.49-3.41,6.39-7.25Zm-11.14-15.03c.61,1.62-1.33,4.41,1.05,5.46,2.14.94,4.62-.11,6.49-1.76,1.76-1.55,1.39-3.69,1.27-5.65-.19-3.12-2.36-4.32-6.11-4.49-3.89-.18-2.43,2.47-2.69,4.26-.09.62-.01,1.25-.01,2.18Z" style="fill: #cfcfe5;"/>
    <path d="m373.55,370.19c-2.27,0-4.53.01-6.8,0-.71,0-1.68.21-1.77-.84-.04-.53.29-1.4.71-1.61,3.06-1.56,2.87-4.35,2.86-7.1-.01-5.79-.02-11.58,0-17.37,0-2.13-.13-4.12-2.8-4.57-.73-.12-1.09-.47-1.09-1.23,0-.77.34-1.16,1.1-1.13,8.12.29,16.42-1,24.14,2.83,3.55,1.76,6.44,4.91,6.82,8.23.36,3.13.21,6.82-.71,10.18-2.66,9.69-9.06,12.17-18.29,12.52-1.38.05-2.77,0-4.16,0,0,.03,0,.07,0,.1Zm.59-17.64h.14c0,3.9-.04,7.79.02,11.68.02,1.23.11,2.52,1.68,3.02,5.28,1.7,12-1.57,13.62-6.9,1.02-3.37,1.26-6.75.94-10.43-.73-8.37-7.09-10.98-12.8-11.36-2.48-.16-3.75.7-3.63,3.41.15,3.51.04,7.04.04,10.56Z" style="fill: #cfcfe5;"/>
    <path d="m705.35,350.45c3.21,7.62.09,12.21-8.43,12.37-1.64.03-4.56-1.11-4.55,1.66,0,2.7,2.93,1.87,4.76,2.03,2,.18,4.03.12,6.03.33,6.25.65,6.87,5.97,3.83,10.17-3.96,5.48-9.75,6.38-15.69,5.19-5.08-1.01-5.85-6.61-2.99-9.88,1.11-1.28,1.93-2.13.42-3.58-.3-.29-.5-1.08-.32-1.41,2.25-4.09.2-7.78-.58-11.76-1.36-6.9,4.31-9.34,10.89-8.51,2.23.28,4.45.35,6.66.62,1.16.15,3.22-1.03,3.32,1.06.12,2.36-2.27.47-3.34,1.71Zm-8.33,29.11c1.1-.17,2.25-.21,3.3-.54,2.49-.78,3.61-2.56,3.23-5.15-.41-2.8-2.61-2.02-4.36-2.04-1.5-.02-3-.04-4.5.01-2.87.09-4,2.06-2.83,4.73,1,2.29,2.82,3,5.16,2.99Zm4.28-23.63c0-4.22-1.87-6.93-4.51-6.71-3.22.27-3.8,2.71-3.85,5.38-.06,3.45,1.97,6.05,4.73,5.91,3.26-.17,3.51-2.61,3.63-4.57Z" style="fill: #cfcfe5;"/>
    <path d="m710.07,164.79c7.16-.83,10.88,3.64,10.81,10.13-.07,6.13-2.96,9.86-11.43,10.29-4.59.23-10.16-3.93-10.45-10.44-.26-5.84,4.47-9.99,11.07-9.99Z" style="fill: #1d1ce6;"/>
    <path d="m625.28,347.63c3.4,0,6.25-.02,9.11.02.66,0,1.72-.33,1.67.82-.02.45-.71,1.18-1.18,1.26-3.53.59-5.37,3.53-7.92,5.48-.95.73-1.25,1.46-.2,2.37,3.56,3.08,5.32,8.01,10.1,9.85.75.29.94.85.75,1.48-.22.73-.73,1.43-1.57,1.36-2.73-.24-5.94,1.43-7.65-2.63-.94-2.23-3.03-3.97-4.61-5.92-.56-.69-1.15-1.49-2.17-1.08-.9.36-.45,1.29-.53,1.98-.24,2.1.15,4.06,2.02,5.28.72.47,1.24.78.97,1.65-.25.81-.98.6-1.57.6-2.77.02-5.53.02-8.3.02-.6,0-1.31.19-1.62-.56-.37-.88.19-1.46.83-1.86,2.53-1.56,2.64-3.96,2.57-6.56-.11-4.52.02-9.05-.04-13.57-.06-3.95,1.41-8.51-3.98-10.02.23-1.44.97-1.19,1.53-1.3q7.71-1.55,7.71,6.38v13.61c5.54-3.62,6.31-5.02,4.07-8.65Z" style="fill: #cfcfe5;"/>
    <path d="m1313.92,318.07c.15,7.57-3.57,10.12-10.65,10.66-5.54.42-10.65-5.28-10.42-10.59.22-5.18,3.86-10.58,10.94-10.55,6.01.02,10.14,4.28,10.14,10.48Z" style="fill: #1d1ce6;"/>
    <path d="m733.23,370.36c-1.77-.34-3.69.22-5.62-.97-3.25-1.99-4.57-4.56-3.7-8.24.34-1.46,1.33-1.22,2.26-1.38,1.5-.25,1.36.74,1.62,1.79,1.43,5.76,5.82,8.16,10.08,5.64,3.72-2.2,3.96-6.74.27-9.13-2.62-1.7-5.5-3.03-8.34-4.37-4.13-1.95-6.08-6.3-5.09-11.7.62-3.36,3.99-5.65,8.46-5.69,2.01-.02,4.06-.17,6.03.12,3.92.58,5.78,3.91,4.54,7.65-.29.88-.88,1.11-1.67,1.23-1.18.19-1.38-.53-1.73-1.44-1.15-2.99-2.52-5.82-6.56-5.32-3.94.49-5.59,4.13-3.42,7.38,1.25,1.87,3.13,2.83,5.03,3.79,1.68.84,3.41,1.6,5.04,2.52,4.85,2.74,6.52,6.23,5.3,10.88-1.16,4.41-4.6,6.97-9.73,7.22-.88.04-1.76,0-2.78,0Z" style="fill: #cfcfe5;"/>
    <path d="m659.77,358.95c0-1.63.03-3.27,0-4.9-.04-1.45-.42-2.73-2.21-2.8-1.08-.04-1.59-.59-1.68-1.6-.12-1.41.95-1.11,1.77-1.27,1.72-.33,3.44-.69,5.12-1.16.8-.23,1.83-.42,1.91.39.39,4.05,2,1.32,3.48.83,6.11-2,12.01-1.32,11.96,6.5-.02,2.89-.02,5.78.04,8.67.03,1.65.13,3.4,1.83,4.26.81.41,1.25.78.97,1.64-.33,1.02-1.23.6-1.91.61-2.52.04-5.03.04-7.55.02-.7,0-1.62.37-1.92-.62-.25-.83.45-1.34.92-1.92,2.57-3.2,3.18-12.18,1.08-15.46-1.52-2.36-5.03-2.03-6.92.7-1.73,2.5-1.86,5.35-1.75,8.26.1,2.81-.63,5.92,3.17,7.1.27.08.47.82.47,1.25,0,.63-.57.7-1.08.7-3.27,0-6.54.03-9.81.01-1.51,0-1.71-.78-.99-1.94q3.11-5.04,3.1-9.29Z" style="fill: #cfcfe5;"/>
    <path d="m763.99,364.22c1.47-3.73,2.9-6.65,3.71-9.74.41-1.55,1.05-3.81-1.48-4.79-.82-.32-.95-1.14-.79-1.9.17-.82.92-.68,1.53-.68,2.14,0,4.27.02,6.41-.01,1.74-.02,2.25,1.16,1.17,2.06-4.14,3.43-4.78,8.6-6.92,13.01-2.56,5.3-4.33,10.96-7.25,16.1-1.62,2.85-3.85,4.35-7.29,4.19-2.09-.09-2.39-1.38-2.65-2.84-.36-2.04,1.13-1.71,2.37-1.79,3.95-.25,6.1-2.83,7.71-6.08.34-.69.48-1.29.1-2.08-2.8-5.82-5.55-11.67-8.32-17.51-.11-.22-.24-.43-.36-.64-.8-1.32-3.7-1.83-2.27-3.88,1.01-1.44,3.27-.34,4.97-.46,1.75-.13,3.52-.09,5.28-.09.72,0,1.62-.18,1.86.81.18.76.04,1.57-.87,1.81-3.19.83-2.1,2.83-1.29,4.7,1.29,2.99,2.66,5.95,4.38,9.79Z" style="fill: #cfcfe5;"/>
    <path d="m478.73,370.37c-9.03.13-10.78-5.07-10.93-12.21-.14-6.6,4.08-11.7,12.18-11.3,8.28.42,11.46,5.83,11.06,12.15-.46,7.37-4.66,11.5-12.32,11.35Zm.06-20.45c-2.08-.44-3.26.84-4.17,2.7-1.89,3.88-1.44,7.89.2,11.51.92,2.03,2.72,4.63,5.79,3.76,2.88-.81,4.39-2.76,4.44-6.09.03-2.17-.02-4.33-.17-6.47-.25-3.52-2.46-5.44-6.09-5.41Z" style="fill: #cfcfe5;"/>
    <path d="m411.27,370.37c-6.41-.12-11.16-5.42-11.08-12.37.08-6.64,5.37-11.29,12.69-11.12,6.76.15,11,4.85,10.86,12.05-.13,7.25-4.86,11.59-12.47,11.44Zm6.34-10.91c0-1.38.25-2.82-.05-4.13-.6-2.61-1.59-4.94-4.8-5.48-3.44-.57-5.6,1.21-6.17,4.04-.75,3.74-.99,7.77,1.49,11.18,1.16,1.6,2.52,3.38,4.85,2.89,1.98-.42,3.63-1.52,4.39-3.64.57-1.61.11-3.24.3-4.86Z" style="fill: #cfcfe5;"/>
    <path d="m570.11,370.32c-7.9.2-11.36-3.39-11.77-11.56-.34-6.76,4.92-11.92,11.58-11.92,6.85,0,11.34,3.15,11.53,11.27.16,7.33-3.32,12.14-11.34,12.21Zm5.64-11.46c.57-1.55-.4-3.69-1.11-5.76-.95-2.79-3.26-3.36-6.06-3.25-2.62.11-3.73,2.03-4.03,3.75-.62,3.55-.8,7.29.92,10.7,1.05,2.08,2.61,3.98,5.17,3.61,2.62-.38,4.46-2.12,4.91-4.9.18-1.11.12-2.25.21-4.16Z" style="fill: #cfcfe5;"/>
    <path d="m597.38,370.39c-6.44.04-11.82-3.81-11.84-8.47-.04-10.15,3.81-15.11,11.68-15.09,7.86.02,11.43,4.53,11.74,14.81.11,3.83-6.35,8.72-11.57,8.75Zm5.62-11.13c.46-1.51-.49-3.26-.93-5.02-.59-2.38-1.83-4.2-4.83-4.4-3.06-.2-4.48,1.15-5.61,3.79-1.45,3.37-.89,6.65.29,9.7.91,2.36,2.69,4.91,5.75,4.58,3.26-.36,4.76-2.85,5.16-5.97.1-.74.09-1.5.16-2.68Z" style="fill: #cfcfe5;"/>
    <path d="m828,370.34c-5.25.63-8.11-2.69-10.14-6.71-2.1-4.15-.66-10.43,2.73-13.82,3.43-3.44,7.49-3.61,11.79-2.06,3.07,1.11,5.77,6.48,5.07,9.68-.33,1.5-1.31,1.61-2.51,1.62-3.14.01-6.29.12-9.43.08-3.04-.04-2.91,1.68-2.03,3.64,2.01,4.5,6.05,5.74,10.66,3.47.84-.41,1.77-2.19,2.74-.55.68,1.15-.9,1.8-1.6,2.54-1.97,2.11-4.57,2.31-7.27,2.11Zm-.77-13.43c1.43-1.22,4.6,1.57,4.52-2.06-.05-2.35-.52-5.07-4.23-5-3.51.07-4.23,2.47-4.39,4.97-.23,3.65,2.9.81,4.1,2.09Z" style="fill: #cfcfe5;"/>
    <path d="m784.94,370.3c-1.01,0-2.01.05-3.02,0-3.79-.21-5.97-4.18-4.23-7.58.37-.73.98-.6,1.56-.71,1.42-.27,1.56.84,1.98,1.73,1.92,4.09,3.36,4.71,6.76,3.69,1.42-.43,2.28-.96,2.43-2.37.16-1.47-.82-2.36-1.97-2.94-2.02-1.01-4.16-1.78-6.15-2.83-2.7-1.43-5.56-3.12-4.58-6.78.92-3.44,3.61-5.18,7.19-5.62,2.43-.3,4.69.41,7,.81,1.4.24,2.54,5.84,1.3,6.51-1.28.69-2.42.14-2.73-1.49-.44-2.36-2.14-3.27-4.29-3.52-1.32-.15-2.6.21-3.15,1.54-.62,1.51.03,2.76,1.42,3.47,1.9.97,3.87,1.8,5.81,2.67,4.67,2.11,6.06,4.3,4.67,8.85-1.02,3.33-3.98,4.56-7.37,4.62-.88.02-1.76,0-2.64,0,0-.02,0-.03,0-.05Z" style="fill: #cfcfe5;"/>
    <path d="m504.11,351.09c1.08-1.04,1.79-1.95,2.7-2.58,2.02-1.41,4.64-1.63,6.29-.27,1.46,1.2.57,3.78.31,5.73-.12.95-1.03,1.25-2.04,1.22-1.12-.04-1.29-.59-1.57-1.59-.76-2.63-2.34-2.83-4.11-.66-1.97,2.41-1.74,5.3-1.93,8.19-.21,3.21.75,5.27,3.91,6.18,1.09.32,1.12,1.33.94,2.15-.22,1-1.19.67-1.89.68-3.27.02-6.54.02-9.81,0-.7,0-1.61.26-1.86-.74-.17-.68.39-1.04.86-1.49,4.66-4.44,2.43-9.91,2.15-15.08-.02-.35-.16-.78-.4-1-.95-.89-4.1-1.19-2.23-2.8,1.77-1.53,5.02-1.78,7.61-1.75,1.41.02.48,2.41,1.06,3.81Z" style="fill: #cfcfe5;"/>
    <path d="m807.14,339.39c0,1.62.11,2.88-.02,4.12-.32,2.92.11,4.97,3.85,4.22,1.11-.22,2.31-.2,2.23,1.6-.09,1.95-1.55,1.43-2.47,1.3-2.94-.42-3.74.81-3.52,3.58.23,3,0,6.04.1,9.05.1,2.97,1.21,4.95,4.7,3.88.72-.22,1.44-.7,1.81.38.32.94-.43,1.3-1.05,1.74-4.43,3.15-10.14.79-10.7-4.53-.24-2.24-.08-4.52-.11-6.79-.03-2.7.31-5.34-2.89-6.99-1.2-.62-1.89-3.06,1-3.19,1.63-.07,1.72-.8,1.79-2.09.23-4.37.28-4.36,5.28-6.27Z" style="fill: #cfcfe5;"/>
    <path d="m459.25,370.38c-4.2.06-6.07-1.5-6.32-5.54-.23-3.64-.15-7.3-.13-10.94,0-1.3.18-2.46-1.75-2.3-1.6.13-2.19-1.25-2.31-2.36-.14-1.22,1.15-1.54,2.16-1.51,1.56.05,1.5-.91,1.48-1.96-.02-1.01-.08-2.02.02-3.02.26-2.36,2.54-2.92,4.04-3.12,2.23-.3,1.26,2.01,1.17,3.03-.3,3.48.08,5.96,4.58,5.09.74-.14,2.27-.63,2.1,1.15-.13,1.33-1.01,2.04-2.35,1.76-3.79-.79-4.06,1.39-3.88,4.28.19,3.01.07,6.04.17,9.05.09,2.71,1.45,3.87,4.21,3.27.68-.15,1.67-1.26,2.07.31.3,1.17-.75,1.51-1.47,1.89-1.23.64-2.58,1-3.78.92Z" style="fill: #cfcfe5;"/>
    <path d="m438.54,370.31c-6.01.67-8.86-3.23-10.63-7.65-1.73-4.33-.23-8.67,2.65-12.22,2.77-3.41,6.4-4.4,10.75-3.04,3.99,1.25,5.07,2.66,4.28,6.3-.18.85-.46,1.41-1.38,1.46-.73.03-1.58.23-1.63-.93-.14-3.1-1.84-4.24-4.86-4.35-3.61-.14-4.16,2.88-4.71,4.93-1.08,4-.16,8,3.02,10.98,2.47,2.31,5.26,1.93,7.99.24.64-.4,1.25-1.64,2.14-.45.71.95-.14,1.59-.75,2.22-1.94,2.01-4.25,3.02-6.89,2.53Z" style="fill: #cfcfe5;"/>
    <path d="m649.57,357.1c0,2.39-.05,4.78.02,7.16.03,1.1-.01,2.34,1.19,2.99.99.54,2.37.96,1.68,2.4-.51,1.05-1.81.44-2.75.47-2.39.06-4.78.05-7.17.03-.7,0-1.59.27-1.83-.76-.16-.67.12-1.42.72-1.59,3.21-.91,2.59-3.54,2.68-5.82.08-2.01,0-4.02.02-6.03.03-2.03.2-4.08-2.42-4.82-.53-.15-1.35-.79-1-1.39,1.54-2.64,4.61-1.57,6.87-2.57,1.64-.73,1.79.97,1.83,2.01.11,2.64.04,5.28.04,7.92h.14Z" style="fill: #cfcfe5;"/>
    <path d="m1378.97,402.04c3.78.03,6.11,2.1,6.1,5.44,0,3.78-3.92,8.33-7.02,8.16-2.57-.14-5.87-3.89-5.92-6.73-.07-4.09,2.73-6.9,6.85-6.87Z" style="fill: #cfcfe5;"/>
    <path d="m1437.21,72.18c.03,3.08-3.04,6.38-5.97,6.42-3.3.05-6.82-3.26-6.94-6.52-.12-3.38,2.98-6.51,6.41-6.47,3.17.04,6.47,3.37,6.5,6.57Z" style="fill: #cfcfe5;"/>
    <path d="m643.09,338.17c-.56-3.23,2.61-2.77,4.18-3.07,1.14-.22,2.44,1.86,2.39,3.47-.06,2.02-1.44,3.12-3.48,3.02-1.94-.1-3.34-.91-3.09-3.42Z" style="fill: #cfcfe5;"/>
    <path d="m1191.2,211.89c2.81.23,4.61,1.76,7.25,2.68-1.21-7.02-1.2-13.82-.91-20.61.19-4.31.77-8.6,3.52-12.27,1.71-2.29,3.4-3.14,6.37-1.86,11.35,4.9,23.17,7.58,35.64,6.91,7.87-.42,15.29-2.29,22-6.44,1.91-1.18,2.83-1.39,3.99.8,4,7.5,8.17,14.89,9.59,23.47.31,1.86.47,3.6,0,5.7,3.28-1.3,4.34-4.67,7.33-6.61-1.09,8.11-1.69,15.84-3.62,23.49-3.34,13.2-9.23,24.83-19.3,34.06-7.39,6.78-16.01,11.06-26.36,10.83-5.31-.12-10.05-2.25-14.69-4.59-11.37-5.74-17.98-15.64-23.25-26.67-4.32-9.04-6.81-18.57-7.57-28.91Z" style="fill: #191e24;"/>
    <path d="m1264.09,272.03c-8.87,11.71-17.74,23.41-26.87,35.47-9.11-12.64-18-24.98-26.89-37.32,8.4,5.11,16.9,9.84,26.8,10.1,9.74.25,18.31-4.1,26.37-9.5.2.42.4.83.6,1.25Z" style="fill: #191e24;"/>
    <path d="m1281.96,352.32c1.25,4.06-.79,4.93-4.23,4.39-.25-.04-.5,0-.76,0q-5.42,0-5.43,5.6c0,4.37-4.22,6.86-8.31,4.92-1.42-.68-.77-1.98-.79-2.99-.18-7.42-.15-7.54-7.72-7.47-2.84.03-3.95-.86-3.61-3.67.14-1.12.12-2.27,0-3.39-.17-1.68.51-2.33,2.14-2.06.12.02.25,0,.38,0,8.32-.26,8.39-.25,8.73-8.28.08-1.8.58-2.28,2.37-2.34,6.81-.25,6.97-.32,6.75,6.53-.1,3.12.46,4.83,3.99,4.11.6-.12,1.26.05,1.89-.03,3.61-.44,6.1.22,4.61,4.69Z" style="fill: #191e24;"/>
    <path d="m1009.72,137.73c-.4-.2-.8-.4-1.2-.6.56-.51,1.12-.38,1.7-.04-.17.21-.33.42-.5.63Z" style="fill: #fff;"/>
  </g>
</svg>