<svg xmlns="http://www.w3.org/2000/svg" xmlns:svg="http://www.w3.org/2000/svg" xmlns:xlink="http://www.w3.org/1999/xlink" version="1.0" height="1260pt" width="810.7349999999999pt" viewBox="322.815 -13 818.7349999999999 1266" ><defs><style type="text/css">
            @font-face {
                font-family: 'noto_regular';
                src: url('https://app.creately.com/diagram/assets/fonts/noto/noto-regular.woff') format('woff'),
                     url('https://app.creately.com/diagram/assets/fonts/noto/noto-regular.woff2') format('woff2');
                font-weight: normal;
                font-style: normal;
            }
        p {
            margin: 0;
        }
        </style></defs><defs><style>
            span{ display: inline-block; }
        </style></defs><g id="jT7xhvhA78z"><g transform="translate(460.00000000000006 -10)"><rect x="0" y="0" width="549.9999999999999" height="1260" fill="rgb(255,255,255)" stroke="#36ABD6" stroke-width="2" stroke-linecap="round" stroke-linejoin="round"/></g><g transform="translate(656.215, 0) rotate(0, 78.785, 0)" width="157.57" height="21.61"><text text-decoration="none" x="3.2849999999999966" fill="#36abd6" font-weight="bold" font-size="12pt" font-family="noto_regular"  y="15">Appointment&#160;</text><text text-decoration="none" x="100.285" fill="#36abd6" font-weight="bold" font-size="12pt" font-family="noto_regular"  y="15">System</text><text text-decoration="none" x="154.285" fill="#4b4b4b" font-size="10pt" font-family="noto_regular"  y="15"></text></g></g><g id="FuhHPSYSbGk"><g transform="translate(330 420)"><ellipse cx="20" cy="10" rx="10" ry="10" fill="rgb(54,171,214)" stroke="#36abd6" stroke-width="2" stroke-linecap="round" stroke-linejoin="round"/><path d="M 20,20 L 20,48 L 40,80 M 20,48 L 0,80 M 2,30 L 38,30" fill="none" stroke="#36abd6" stroke-width="2" stroke-linecap="round" stroke-linejoin="round"/><rect x="0" y="0" width="40" height="80" fill="rgba(255,255,255,0.01)" stroke="rgba(255,255,255,0.01)" stroke-width="2" stroke-linecap="round" stroke-linejoin="round"/></g><g transform="translate(327.815, 510) rotate(0, 22.185, 0)" width="44.37" height="18.4"><text text-decoration="none" x="2.1849999999999987" fill="#325364" font-weight="bold" font-size="10pt" font-family="noto_regular"  y="15">Patient</text><text text-decoration="none" x="42.185" fill="#4b4b4b" font-size="10pt" font-family="noto_regular"  y="15"></text></g></g><g id="n1ZXMbWgdoj"><g transform="translate(675 50)"><ellipse cx="60" cy="30" rx="60" ry="30" fill="rgb(50,83,100)" stroke="#325364" stroke-width="2" stroke-linecap="round" stroke-linejoin="round"/></g><g transform="translate(685.19, 70.8) rotate(0, 49.81, 9.2)" width="99.62" height="18.4"><text text-decoration="none" x="5.310000000000002" fill="#ffffff" font-size="10pt" font-family="noto_regular"  y="15">Register&#160;</text><text text-decoration="none" x="55.31" fill="#ffffff" font-size="10pt" font-family="noto_regular"  y="15">patient</text><text text-decoration="none" x="94.31" fill="#4b4b4b" font-size="10pt" font-family="noto_regular"  y="15"></text></g></g><g id="Ol3xUbEKVcc"><g transform="translate(675 140)"><ellipse cx="60" cy="30" rx="60" ry="30" fill="rgb(50,83,100)" stroke="#325364" stroke-width="2" stroke-linecap="round" stroke-linejoin="round"/></g><g transform="translate(684.9, 160.8) rotate(0, 50.1, 9.2)" width="100.2" height="18.4"><text text-decoration="none" x="4.600000000000001" fill="#ffffff" font-size="10pt" font-family="noto_regular"  y="15">Choose&#160;</text><text text-decoration="none" x="50.6" fill="#ffffff" font-size="10pt" font-family="noto_regular"  y="15">hospital</text><text text-decoration="none" x="95.6" fill="#4b4b4b" font-size="10pt" font-family="noto_regular"  y="15"></text></g></g><g id="iVlrFnpxo6K"><g transform="translate(675 230)"><ellipse cx="60" cy="30" rx="60" ry="30" fill="rgb(50,83,100)" stroke="#325364" stroke-width="2" stroke-linecap="round" stroke-linejoin="round"/></g><g transform="translate(689.2, 241.6) rotate(0, 45.8, 18.4)" width="91.6" height="36.8"><text text-decoration="none" x="3.799999999999997" fill="#ffffff" font-size="10pt" font-family="noto_regular"  y="12">View&#160;</text><text text-decoration="none" x="34.8" fill="#ffffff" font-size="10pt" font-family="noto_regular"  y="12">available&#160;</text><text text-decoration="none" x="87.8" fill="#ffffff" font-size="10pt" font-family="noto_regular"  y="12"></text><text text-decoration="none" x="24.299999999999997" fill="#ffffff" font-size="10pt" font-family="noto_regular"  y="31">doctors</text><text text-decoration="none" x="67.3" fill="#4b4b4b" font-size="10pt" font-family="noto_regular"  y="31"></text></g></g><g id="mVzg2nq70t7"><g transform="translate(675 320)"><ellipse cx="60" cy="30" rx="60" ry="30" fill="rgb(50,83,100)" stroke="#325364" stroke-width="2" stroke-linecap="round" stroke-linejoin="round"/></g><g transform="translate(682.685, 331.6) rotate(0, 52.315, 18.4)" width="104.63" height="36.8"><text text-decoration="none" x="4.314999999999998" fill="#ffffff" font-size="10pt" font-family="noto_regular"  y="12">Search&#160;</text><text text-decoration="none" x="47.315" fill="#ffffff" font-size="10pt" font-family="noto_regular"  y="12">available&#160;</text><text text-decoration="none" x="100.315" fill="#ffffff" font-size="10pt" font-family="noto_regular"  y="12"></text><text text-decoration="none" x="13.314999999999998" fill="#ffffff" font-size="10pt" font-family="noto_regular"  y="31">appointments</text><text text-decoration="none" x="91.315" fill="#4b4b4b" font-size="10pt" font-family="noto_regular"  y="31"></text></g></g><g id="dkX7YYSJ8js"><g transform="translate(589.9999999999999 440)"><ellipse cx="60" cy="30" rx="60" ry="30" fill="rgb(50,83,100)" stroke="#325364" stroke-width="2" stroke-linecap="round" stroke-linejoin="round"/></g><g transform="translate(603.7949999999998, 460.8) rotate(0, 46.205, 9.2)" width="92.41" height="18.4"><text text-decoration="none" x="4.204999999999998" fill="#ffffff" font-size="10pt" font-family="noto_regular"  y="15">Search&#160;</text><text text-decoration="none" x="47.205" fill="#ffffff" font-size="10pt" font-family="noto_regular"  y="15">by&#160;</text><text text-decoration="none" x="63.205" fill="#ffffff" font-size="10pt" font-family="noto_regular"  y="15">date</text><text text-decoration="none" x="88.205" fill="#4b4b4b" font-size="10pt" font-family="noto_regular"  y="15"></text></g></g><g id="EwOyLbVAr2X"><g transform="translate(759.9999999999999 440)"><ellipse cx="60" cy="30" rx="60" ry="30" fill="rgb(50,83,100)" stroke="#325364" stroke-width="2" stroke-linecap="round" stroke-linejoin="round"/></g><g transform="translate(767.2799999999999, 460.8) rotate(0, 52.72, 9.2)" width="105.44" height="18.4"><text text-decoration="none" x="5.219999999999999" fill="#ffffff" font-size="10pt" font-family="noto_regular"  y="15">Search&#160;</text><text text-decoration="none" x="48.22" fill="#ffffff" font-size="10pt" font-family="noto_regular"  y="15">by&#160;</text><text text-decoration="none" x="64.22" fill="#ffffff" font-size="10pt" font-family="noto_regular"  y="15">doctor</text><text text-decoration="none" x="100.22" fill="#4b4b4b" font-size="10pt" font-family="noto_regular"  y="15"></text></g></g><g id="8oafwS8LNbK"><g transform="translate(589.9999999999999 550)"><ellipse cx="60" cy="30" rx="60" ry="30" fill="rgb(50,83,100)" stroke="#325364" stroke-width="2" stroke-linecap="round" stroke-linejoin="round"/></g><g transform="translate(609.2649999999999, 561.6) rotate(0, 40.735, 18.4)" width="81.47" height="36.8"><text text-decoration="none" x="16.235" fill="#ffffff" font-size="10pt" font-family="noto_regular"  y="12">Book&#160;</text><text text-decoration="none" x="48.235" fill="#ffffff" font-size="10pt" font-family="noto_regular"  y="12">an&#160;</text><text text-decoration="none" x="65.235" fill="#ffffff" font-size="10pt" font-family="noto_regular"  y="12"></text><text text-decoration="none" x="5.234999999999999" fill="#ffffff" font-size="10pt" font-family="noto_regular"  y="31">appointment</text><text text-decoration="none" x="76.235" fill="#4b4b4b" font-size="10pt" font-family="noto_regular"  y="31"></text></g></g><g id="dmNm267NQwn"><g transform="translate(589.9999999999999 630)"><ellipse cx="60" cy="30" rx="60" ry="30" fill="rgb(50,83,100)" stroke="#325364" stroke-width="2" stroke-linecap="round" stroke-linejoin="round"/></g><g transform="translate(610.7949999999998, 650.8) rotate(0, 39.205, 9.2)" width="78.41" height="18.4"><text text-decoration="none" x="2.7049999999999983" fill="#ffffff" font-size="10pt" font-family="noto_regular"  y="15">Post&#160;</text><text text-decoration="none" x="31.705" fill="#ffffff" font-size="10pt" font-family="noto_regular"  y="15">reviews</text><text text-decoration="none" x="75.705" fill="#4b4b4b" font-size="10pt" font-family="noto_regular"  y="15"></text></g></g><g id="nlIulPfi3cK"><g transform="translate(589.9999999999999 710)"><ellipse cx="60" cy="30" rx="60" ry="30" fill="rgb(50,83,100)" stroke="#325364" stroke-width="2" stroke-linecap="round" stroke-linejoin="round"/></g><g transform="translate(606.0799999999999, 721.6) rotate(0, 43.92, 18.4)" width="87.84" height="36.8"><text text-decoration="none" x="19.42" fill="#ffffff" font-size="10pt" font-family="noto_regular"  y="12">Manage&#160;</text><text text-decoration="none" x="68.42" fill="#ffffff" font-size="10pt" font-family="noto_regular"  y="12"></text><text text-decoration="none" x="4.920000000000002" fill="#ffffff" font-size="10pt" font-family="noto_regular"  y="31">appointments</text><text text-decoration="none" x="82.92" fill="#4b4b4b" font-size="10pt" font-family="noto_regular"  y="31"></text></g></g><g id="D4GcTP6d9po"><g transform="translate(589.9999999999999 830)"><ellipse cx="60" cy="30" rx="60" ry="30" fill="rgb(50,83,100)" stroke="#325364" stroke-width="2" stroke-linecap="round" stroke-linejoin="round"/></g><g transform="translate(609.2649999999999, 841.6) rotate(0, 40.735, 18.4)" width="81.47" height="36.8"><text text-decoration="none" x="21.235" fill="#ffffff" font-size="10pt" font-family="noto_regular"  y="12">Cancel</text><text text-decoration="none" x="60.235" fill="#ffffff" font-size="10pt" font-family="noto_regular"  y="12"></text><text text-decoration="none" x="5.234999999999999" fill="#ffffff" font-size="10pt" font-family="noto_regular"  y="31">appointment</text><text text-decoration="none" x="76.235" fill="#4b4b4b" font-size="10pt" font-family="noto_regular"  y="31"></text></g></g><g id="z7BFRhhIyxT"><g transform="translate(719.9999999999999 830)"><ellipse cx="60" cy="30" rx="60" ry="30" fill="rgb(50,83,100)" stroke="#325364" stroke-width="2" stroke-linecap="round" stroke-linejoin="round"/></g><g transform="translate(739.2649999999999, 841.6) rotate(0, 40.735, 18.4)" width="81.47" height="36.8"><text text-decoration="none" x="19.235" fill="#ffffff" font-size="10pt" font-family="noto_regular"  y="12">Change</text><text text-decoration="none" x="62.235" fill="#ffffff" font-size="10pt" font-family="noto_regular"  y="12"></text><text text-decoration="none" x="5.234999999999999" fill="#ffffff" font-size="10pt" font-family="noto_regular"  y="31">appointment</text><text text-decoration="none" x="76.235" fill="#4b4b4b" font-size="10pt" font-family="noto_regular"  y="31"></text></g></g><g id="YIQAdOdgG4g"><g transform="translate(655 960)"><ellipse cx="80" cy="35" rx="80" ry="35" fill="rgb(50,83,100)" stroke="#325364" stroke-width="2" stroke-linecap="round" stroke-linejoin="round"/></g><g transform="translate(665.705, 976.6) rotate(0, 69.295, 18.4)" width="138.59" height="36.8"><text text-decoration="none" x="29.795" fill="#ffffff" font-size="10pt" font-family="noto_regular"  y="12">View&#160;</text><text text-decoration="none" x="60.795" fill="#ffffff" font-size="10pt" font-family="noto_regular"  y="12">patient&#x27;s</text><text text-decoration="none" x="108.795" fill="#ffffff" font-size="10pt" font-family="noto_regular"  y="12"></text><text text-decoration="none" x="8.295000000000002" fill="#ffffff" font-size="10pt" font-family="noto_regular"  y="31">records&#160;</text><text text-decoration="none" x="54.295" fill="#ffffff" font-size="10pt" font-family="noto_regular"  y="31">&#x26;&#160;</text><text text-decoration="none" x="65.295" fill="#ffffff" font-size="10pt" font-family="noto_regular"  y="31">information</text><text text-decoration="none" x="130.29500000000002" fill="#4b4b4b" font-size="10pt" font-family="noto_regular"  y="31"></text></g></g><g id="tBqY5ZiIrIV"><g transform="translate(675 1050)"><ellipse cx="60" cy="30" rx="60" ry="30" fill="rgb(50,83,100)" stroke="#325364" stroke-width="2" stroke-linecap="round" stroke-linejoin="round"/></g><g transform="translate(688.435, 1061.6) rotate(0, 46.565, 18.4)" width="93.13" height="36.8"><text text-decoration="none" x="5.564999999999998" fill="#ffffff" font-size="10pt" font-family="noto_regular"  y="12">Send&#160;</text><text text-decoration="none" x="37.565" fill="#ffffff" font-size="10pt" font-family="noto_regular"  y="12">reminder</text><text text-decoration="none" x="87.565" fill="#ffffff" font-size="10pt" font-family="noto_regular"  y="12"></text><text text-decoration="none" x="20.064999999999998" fill="#ffffff" font-size="10pt" font-family="noto_regular"  y="31">to&#160;</text><text text-decoration="none" x="34.065" fill="#ffffff" font-size="10pt" font-family="noto_regular"  y="31">patient</text><text text-decoration="none" x="73.065" fill="#4b4b4b" font-size="10pt" font-family="noto_regular"  y="31"></text></g></g><g id="1xODfZFKXL7"><g transform="translate(655 1130)"><ellipse cx="80" cy="40" rx="80" ry="40" fill="rgb(50,83,100)" stroke="#325364" stroke-width="2" stroke-linecap="round" stroke-linejoin="round"/></g><g transform="translate(678.75, 1142.4) rotate(0, 56.25, 27.6)" width="112.5" height="55.2"><text text-decoration="none" x="32.75" fill="#ffffff" font-size="10pt" font-family="noto_regular"  y="12">View&#160;</text><text text-decoration="none" x="63.75" fill="#ffffff" font-size="10pt" font-family="noto_regular"  y="12">all&#160;</text><text text-decoration="none" x="79.75" fill="#ffffff" font-size="10pt" font-family="noto_regular"  y="12"></text><text text-decoration="none" x="15.75" fill="#ffffff" font-size="10pt" font-family="noto_regular"  y="28">appointments&#160;</text><text text-decoration="none" x="96.75" fill="#ffffff" font-size="10pt" font-family="noto_regular"  y="28"></text><text text-decoration="none" x="4.75" fill="#ffffff" font-size="10pt" font-family="noto_regular"  y="47">for&#160;</text><text text-decoration="none" x="23.75" fill="#ffffff" font-size="10pt" font-family="noto_regular"  y="47">specific&#160;</text><text text-decoration="none" x="71.75" fill="#ffffff" font-size="10pt" font-family="noto_regular"  y="47">doctor</text><text text-decoration="none" x="107.75" fill="#4b4b4b" font-size="10pt" font-family="noto_regular"  y="47"></text></g></g><g id="MtoetFEb8lo"><g transform="translate(350 1000.0000062500002)"><ellipse cx="20" cy="10" rx="10" ry="10" fill="rgb(54,171,214)" stroke="#36abd6" stroke-width="2" stroke-linecap="round" stroke-linejoin="round"/><path d="M 20,20 L 20,48 L 40,80 M 20,48 L 0,80 M 2,30 L 38,30" fill="none" stroke="#36abd6" stroke-width="2" stroke-linecap="round" stroke-linejoin="round"/><rect x="0" y="0" width="40" height="80" fill="rgba(255,255,255,0.01)" stroke="rgba(255,255,255,0.01)" stroke-width="2" stroke-linecap="round" stroke-linejoin="round"/></g><g transform="translate(331.45, 1090.0000062500003) rotate(0, 38.55, 0)" width="77.1" height="18.4"><text text-decoration="none" x="3.049999999999997" fill="#325364" font-size="10pt" font-family="noto_regular"  y="15">Receptionist</text><text text-decoration="none" x="74.05" fill="#4b4b4b" font-size="10pt" font-family="noto_regular"  y="15"></text></g></g><g id="5y5W9RzsyTl"><g transform="translate(1080 870)"><ellipse cx="20" cy="10" rx="10" ry="10" fill="rgb(54,171,214)" stroke="#36abd6" stroke-width="2" stroke-linecap="round" stroke-linejoin="round"/><path d="M 20,20 L 20,48 L 40,80 M 20,48 L 0,80 M 2,30 L 38,30" fill="none" stroke="#36abd6" stroke-width="2" stroke-linecap="round" stroke-linejoin="round"/><rect x="0" y="0" width="40" height="80" fill="rgba(255,255,255,0.01)" stroke="rgba(255,255,255,0.01)" stroke-width="2" stroke-linecap="round" stroke-linejoin="round"/></g><g transform="translate(1061.45, 960) rotate(0, 38.55, 0)" width="77.1" height="18.4"><text text-decoration="none" x="3.049999999999997" fill="#325364" font-size="10pt" font-family="noto_regular"  y="15">Receptionist</text><text text-decoration="none" x="74.05" fill="#4b4b4b" font-size="10pt" font-family="noto_regular"  y="15"></text></g></g><g id="IErk8oBege3"><g><path d="M 385,428 L 675,80" fill="none" stroke="#004291" stroke-width="2" stroke-linecap="round" stroke-linejoin="round"/></g></g><g id="HvecLSjmwrW"><g><path d="M 385,444 L 675,170" fill="none" stroke="#004291" stroke-width="2" stroke-linecap="round" stroke-linejoin="round"/></g></g><g id="RUJ4zVmRcI8"><g><path d="M 385,460 L 675,260" fill="none" stroke="#004291" stroke-width="2" stroke-linecap="round" stroke-linejoin="round"/></g></g><g id="gC8zxGXVLxP"><g><path d="M 385,476 L 675,350" fill="none" stroke="#004291" stroke-width="2" stroke-linecap="round" stroke-linejoin="round"/></g></g><g id="ziLy06xjed3"><g><path d="M 385,492 L 590,580" fill="none" stroke="#004291" stroke-width="2" stroke-linecap="round" stroke-linejoin="round"/></g></g><g id="e7tIF6eSQac"><g><path d="M 385,492 L 590,660" fill="none" stroke="#004291" stroke-width="2" stroke-linecap="round" stroke-linejoin="round"/></g></g><g id="hwoVmOKg3R6"><g><path d="M 385,508 L 590,740" fill="none" stroke="#004291" stroke-width="2" stroke-linecap="round" stroke-linejoin="round"/></g></g><g id="GyD1b5YhfD8"><g><path d="M 385,508 L 655,995" fill="none" stroke="#004291" stroke-width="2" stroke-linecap="round" stroke-linejoin="round"/></g></g><g id="FzTQCa7l9Ni"><g><path d="M 711,378 L 691,448" fill="none" stroke="#004291" stroke-width="2" stroke-linecap="round" stroke-linejoin="round"/><path d="M 691,448 L 698.9259651968255,441.2282984096764 L 687.8723284494533,438.0554267360746 Z" fill="rgb(0,66,145)" stroke="#004291" stroke-width="2" stroke-linecap="round" stroke-linejoin="round"/></g></g><g id="xUdVlvBbM7Y"><g><path d="M 759,378 L 779,448" fill="none" stroke="#004291" stroke-width="2" stroke-linecap="round" stroke-linejoin="round"/><path d="M 779,448 L 782.1276715505468,438.05542673607465 L 771.0740348031746,441.2282984096764 Z" fill="rgb(0,66,145)" stroke="#004291" stroke-width="2" stroke-linecap="round" stroke-linejoin="round"/></g></g><g id="DHUm4417KZd"><g><path d="M 405,1040 L 663,1010" fill="none" stroke="#004291" stroke-width="2" stroke-linecap="round" stroke-linejoin="round"/></g></g><g id="876RI2FRrPo"><g><path d="M 405,1056 L 655,1170" fill="none" stroke="#004291" stroke-width="2" stroke-linecap="round" stroke-linejoin="round"/></g></g><g id="mCgrFUmSrLG"><g><path d="M 1065,878 L 710,740" fill="none" stroke="#004291" stroke-width="2" stroke-linecap="round" stroke-linejoin="round"/></g></g><g id="JX8rndgyFSX"><g><path d="M 1065,926 L 795,1080" fill="none" stroke="#004291" stroke-width="2" stroke-linecap="round" stroke-linejoin="round"/></g></g><g id="odxIBUdd4TE"><g><path d="M 1065,910 L 807,1010" fill="none" stroke="#004291" stroke-width="2" stroke-linecap="round" stroke-linejoin="round"/></g></g><g id="cCZyETpIJ6f"><g><path d="M 1065,942 L 815,1170" fill="none" stroke="#004291" stroke-width="2" stroke-linecap="round" stroke-linejoin="round"/></g></g><g id="sud9xPURJu2"><mask id="51b9e" x="636" y="756" width="28" height="88" maskUnits="userSpaceOnUse"><rect x="636" y="756" width="28" height="88" fill="white" /><rect x="610.645" y="787.8" width="78.71" height="24.4" fill="black" /></mask><g mask="url(#51b9e)"><path d="M 650,830 L 650,770" fill="none" stroke="#004291" stroke-width="2" stroke-linecap="round" stroke-linejoin="round" stroke-dasharray="5 5"/><path d="M 650,830 L 656.4971751412429,823.0434782608696 M 650,830 L 643.5028248587571,823.0434782608696 Z" fill="rgb(255,255,255)" stroke="#004291" stroke-width="2" stroke-linecap="round" stroke-linejoin="round"/></g><g transform="translate(613.645, 790.8)" width="72.71" height="18.4"><text text-decoration="none" x="3.354999999999997" fill="#004291" font-size="10pt" font-family="noto_regular"  y="15">&#x3C;&#x3C;extend&#x3E;&#x3E;</text><text text-decoration="none" x="69.35499999999999" fill="#4b4b4b" font-size="10pt" font-family="noto_regular"  y="15"></text></g></g><g id="8YNmdGcQbrT"><mask id="b82ea" x="660" y="754" width="134" height="90" maskUnits="userSpaceOnUse"><rect x="660" y="754" width="134" height="90" fill="white" /><rect x="687.645" y="786.8" width="78.71" height="24.4" fill="black" /></mask><g mask="url(#b82ea)"><path d="M 780,830 L 674,768" fill="none" stroke="#004291" stroke-width="2" stroke-linecap="round" stroke-linejoin="round" stroke-dasharray="5 5"/><path d="M 780,830 L 777.3011444088526,820.8718754379056 M 780,830 L 770.7090542293744,832.0699773453525 Z" fill="rgb(255,255,255)" stroke="#004291" stroke-width="2" stroke-linecap="round" stroke-linejoin="round"/></g><g transform="translate(690.645, 789.8)" width="72.71" height="18.4"><text text-decoration="none" x="3.354999999999997" fill="#004291" font-size="10pt" font-family="noto_regular"  y="15">&#x3C;&#x3C;extend&#x3E;&#x3E;</text><text text-decoration="none" x="69.35499999999999" fill="#4b4b4b" font-size="10pt" font-family="noto_regular"  y="15"></text></g></g><g id="p8huS5f4kBB"><g transform="translate(819.9999999999999 610)"><ellipse cx="60" cy="30" rx="60" ry="30" fill="rgb(50,83,100)" stroke="#325364" stroke-width="2" stroke-linecap="round" stroke-linejoin="round"/></g><g transform="translate(839.9899999999999, 621.6) rotate(0, 40.01, 18.4)" width="80.02" height="36.8"><text text-decoration="none" x="4.009999999999998" fill="#ffffff" font-size="10pt" font-family="noto_regular"  y="12">Authenticate</text><text text-decoration="none" x="76.00999999999999" fill="#ffffff" font-size="10pt" font-family="noto_regular"  y="12"></text><text text-decoration="none" x="20.509999999999998" fill="#ffffff" font-size="10pt" font-family="noto_regular"  y="31">patient</text><text text-decoration="none" x="59.51" fill="#4b4b4b" font-size="10pt" font-family="noto_regular"  y="31"></text></g></g><g id="LfznzHbsxFf"><mask id="c882a" x="696" y="566" width="144" height="75" maskUnits="userSpaceOnUse"><rect x="696" y="566" width="144" height="75" fill="white" /><rect x="727.58" y="591.3" width="80.84" height="24.4" fill="black" /></mask><g mask="url(#c882a)"><path d="M 710,580 L 826,627" fill="none" stroke="#004291" stroke-width="2" stroke-linecap="round" stroke-linejoin="round" stroke-dasharray="5 5"/><path d="M 826,627 L 821.9943308169005,618.3651233987655 M 826,627 L 817.1120209514238,630.4073901970643 Z" fill="rgb(255,255,255)" stroke="#004291" stroke-width="2" stroke-linecap="round" stroke-linejoin="round"/></g><g transform="translate(730.58, 594.3)" width="74.84" height="18.4"><text text-decoration="none" x="2.9200000000000017" fill="#004291" font-size="10pt" font-family="noto_regular"  y="15">&#x3C;&#x3C;include&#x3E;&#x3E;</text><text text-decoration="none" x="71.92" fill="#4b4b4b" font-size="10pt" font-family="noto_regular"  y="15"></text></g></g><g id="Zwi1FPFCSze"><mask id="13a59" x="696" y="639" width="144" height="35" maskUnits="userSpaceOnUse"><rect x="696" y="639" width="144" height="35" fill="white" /><rect x="727.58" y="644.3" width="80.84" height="24.4" fill="black" /></mask><g mask="url(#13a59)"><path d="M 710,660 L 826,653" fill="none" stroke="#004291" stroke-width="2" stroke-linecap="round" stroke-linejoin="round" stroke-dasharray="5 5"/><path d="M 826,653 L 818.6645179609803,646.9339318518336 M 826,653 L 819.4477339317133,659.9046570438624 Z" fill="rgb(255,255,255)" stroke="#004291" stroke-width="2" stroke-linecap="round" stroke-linejoin="round"/></g><g transform="translate(730.58, 647.3)" width="74.84" height="18.4"><text text-decoration="none" x="2.9200000000000017" fill="#004291" font-size="10pt" font-family="noto_regular"  y="15">&#x3C;&#x3C;include&#x3E;&#x3E;</text><text text-decoration="none" x="71.92" fill="#4b4b4b" font-size="10pt" font-family="noto_regular"  y="15"></text></g></g><g id="gVJdZ3muWrj"><mask id="3485e" x="677" y="654" width="193" height="78" maskUnits="userSpaceOnUse"><rect x="677" y="654" width="193" height="78" fill="white" /><rect x="733.08" y="680.8" width="80.84" height="24.4" fill="black" /></mask><g mask="url(#3485e)"><path d="M 691,718 L 856,668" fill="none" stroke="#004291" stroke-width="2" stroke-linecap="round" stroke-linejoin="round" stroke-dasharray="5 5"/><path d="M 856,668 L 847.4503812442775,663.8154452262183 M 856,668 L 851.2420542759146,676.2442969384683 Z" fill="rgb(255,255,255)" stroke="#004291" stroke-width="2" stroke-linecap="round" stroke-linejoin="round"/></g><g transform="translate(736.08, 683.8)" width="74.84" height="18.4"><text text-decoration="none" x="2.9200000000000017" fill="#004291" font-size="10pt" font-family="noto_regular"  y="15">&#x3C;&#x3C;include&#x3E;&#x3E;</text><text text-decoration="none" x="71.92" fill="#4b4b4b" font-size="10pt" font-family="noto_regular"  y="15"></text></g></g><g id="kqwocNI22YO"><mask id="03fc6" x="801" y="654" width="117" height="355" maskUnits="userSpaceOnUse"><rect x="801" y="654" width="117" height="355" fill="white" /><rect x="819.08" y="819.3" width="80.84" height="24.4" fill="black" /></mask><g mask="url(#03fc6)"><path d="M 815,995 L 904,668" fill="none" stroke="#004291" stroke-width="2" stroke-linecap="round" stroke-linejoin="round" stroke-dasharray="5 5"/><path d="M 904,668 L 895.9055189322289,673.008578218065 M 904,668 L 908.4448219573079,676.4172464197511 Z" fill="rgb(255,255,255)" stroke="#004291" stroke-width="2" stroke-linecap="round" stroke-linejoin="round"/></g><g transform="translate(822.08, 822.3)" width="74.84" height="18.4"><text text-decoration="none" x="2.9200000000000017" fill="#004291" font-size="10pt" font-family="noto_regular"  y="15">&#x3C;&#x3C;include&#x3E;&#x3E;</text><text text-decoration="none" x="71.92" fill="#4b4b4b" font-size="10pt" font-family="noto_regular"  y="15"></text></g></g></svg>